<svg width="38" height="37" viewBox="0 0 38 37" fill="none" xmlns="http://www.w3.org/2000/svg">
<path d="M20.6487 16.9583H28.357L26.0445 14.6458L28.2337 12.4567L34.277 18.5L28.2337 24.5433L26.0445 22.3542L28.357 20.0417H20.6487V27.75L22.9612 25.4375L25.1503 27.6267L19.107 33.67L13.0637 27.6267L15.2528 25.4375L17.5653 27.75V20.0417H9.85701L12.1695 22.3542L9.98034 24.5433L3.93701 18.5L9.98034 12.4567L12.1695 14.6458L9.85701 16.9583H17.5653V9.25002L15.2528 11.5625L13.0637 9.37335L19.107 3.33002L25.1503 9.37335L22.9612 11.5625L20.6487 9.25002V16.9583Z" fill="#D62B70"/>
</svg>
