<svg width="38" height="38" viewBox="0 0 38 38" fill="none" xmlns="http://www.w3.org/2000/svg">
<path d="M33.5624 13.9279C35.4895 12.0009 34.6108 9.75002 33.5624 8.65544L28.9374 4.03044C26.9949 2.10336 24.7595 2.98211 23.6649 4.03044L21.0441 6.66669H17.0512C14.122 6.66669 12.4262 8.20836 11.5629 9.98127L4.71786 16.8263V22.9929L3.62327 24.0721C1.69619 26.0146 2.57494 28.25 3.62327 29.3446L8.24827 33.9696C9.08077 34.8021 9.97494 35.1104 10.8229 35.1104C11.9174 35.1104 12.9195 34.5709 13.5208 33.9696L17.6833 29.7917H23.2179C25.8387 29.7917 27.1645 28.1575 27.6424 26.5542C29.3845 26.0917 30.3404 24.7659 30.7258 23.4709C33.1154 22.8542 34.0095 20.5879 34.0095 19V14.375H33.0999L33.5624 13.9279ZM30.9262 19C30.9262 19.6938 30.6333 20.5417 29.3845 20.5417H27.8429V22.0834C27.8429 22.7771 27.5499 23.625 26.3012 23.625H24.7595V25.1667C24.7595 25.8604 24.4666 26.7084 23.2179 26.7084H16.4191L11.3624 31.765C10.8845 32.2121 10.607 31.95 10.4374 31.7804L5.82786 27.1863C5.38077 26.7084 5.64286 26.4309 5.81244 26.2613L7.80119 24.2571V18.0904L10.8845 15.0071V17.4584C10.8845 19.3238 12.1179 22.0834 15.5095 22.0834C18.9012 22.0834 20.1345 19.3238 20.1345 17.4584H30.9262V19ZM31.3733 11.7388L28.7524 14.375H17.0512V17.4584C17.0512 18.1521 16.7583 19 15.5095 19C14.2608 19 13.9679 18.1521 13.9679 17.4584V12.8334C13.9679 12.1242 14.2299 9.75002 17.0512 9.75002H22.3083L25.8233 6.23502C26.3012 5.78794 26.5787 6.05002 26.7483 6.21961L31.3579 10.8138C31.8049 11.2917 31.5429 11.5692 31.3733 11.7388Z" fill="#D62B70"/>
</svg>
