<svg width="24" height="7" viewBox="0 0 24 7" fill="none" xmlns="http://www.w3.org/2000/svg">
<path d="M0.312844 3.24C0.312844 2.52 0.424844 1.944 0.648844 1.512C0.888844 1.064 1.20884 0.743999 1.60884 0.551999C2.02484 0.359999 2.48084 0.263999 2.97684 0.263999C3.47284 0.263999 3.92084 0.359999 4.32084 0.551999C4.72084 0.743999 5.04084 1.064 5.28084 1.512C5.52084 1.944 5.64084 2.52 5.64084 3.24C5.64084 3.944 5.52084 4.52 5.28084 4.968C5.04084 5.4 4.72084 5.72 4.32084 5.928C3.92084 6.12 3.47284 6.216 2.97684 6.216C2.48084 6.216 2.02484 6.12 1.60884 5.928C1.20884 5.72 0.888844 5.4 0.648844 4.968C0.424844 4.52 0.312844 3.944 0.312844 3.24ZM9.33628 3.24C9.33628 2.52 9.44828 1.944 9.67228 1.512C9.91228 1.064 10.2323 0.743999 10.6323 0.551999C11.0483 0.359999 11.5043 0.263999 12.0003 0.263999C12.4963 0.263999 12.9443 0.359999 13.3443 0.551999C13.7443 0.743999 14.0643 1.064 14.3043 1.512C14.5443 1.944 14.6643 2.52 14.6643 3.24C14.6643 3.944 14.5443 4.52 14.3043 4.968C14.0643 5.4 13.7443 5.72 13.3443 5.928C12.9443 6.12 12.4963 6.216 12.0003 6.216C11.5043 6.216 11.0483 6.12 10.6323 5.928C10.2323 5.72 9.91228 5.4 9.67228 4.968C9.44828 4.52 9.33628 3.944 9.33628 3.24ZM18.3597 3.24C18.3597 2.52 18.4717 1.944 18.6957 1.512C18.9357 1.064 19.2557 0.743999 19.6557 0.551999C20.0717 0.359999 20.5277 0.263999 21.0237 0.263999C21.5197 0.263999 21.9677 0.359999 22.3677 0.551999C22.7677 0.743999 23.0877 1.064 23.3277 1.512C23.5677 1.944 23.6877 2.52 23.6877 3.24C23.6877 3.944 23.5677 4.52 23.3277 4.968C23.0877 5.4 22.7677 5.72 22.3677 5.928C21.9677 6.12 21.5197 6.216 21.0237 6.216C20.5277 6.216 20.0717 6.12 19.6557 5.928C19.2557 5.72 18.9357 5.4 18.6957 4.968C18.4717 4.52 18.3597 3.944 18.3597 3.24Z" fill="#D62B70"/>
</svg>
