<svg width="230" height="24" viewBox="0 0 230 24" fill="none" xmlns="http://www.w3.org/2000/svg">
<path d="M0.39975 11.736C0.39975 9.51733 0.87975 7.544 1.83975 5.816C2.79975 4.06667 4.13308 2.712 5.83975 1.752C7.56775 0.770665 9.51975 0.279999 11.6958 0.279999C14.3624 0.279999 16.6451 0.983999 18.5438 2.392C20.4424 3.8 21.7118 5.72 22.3518 8.152H16.3358C15.8878 7.21333 15.2478 6.49867 14.4158 6.008C13.6051 5.51733 12.6771 5.272 11.6318 5.272C9.94642 5.272 8.58108 5.85867 7.53575 7.032C6.49042 8.20533 5.96775 9.77333 5.96775 11.736C5.96775 13.6987 6.49042 15.2667 7.53575 16.44C8.58108 17.6133 9.94642 18.2 11.6318 18.2C12.6771 18.2 13.6051 17.9547 14.4158 17.464C15.2478 16.9733 15.8878 16.2587 16.3358 15.32H22.3518C21.7118 17.752 20.4424 19.672 18.5438 21.08C16.6451 22.4667 14.3624 23.16 11.6958 23.16C9.51975 23.16 7.56775 22.68 5.83975 21.72C4.13308 20.7387 2.79975 19.384 1.83975 17.656C0.87975 15.928 0.39975 13.9547 0.39975 11.736ZM31.0788 0.535999V13.976C31.0788 15.32 31.4094 16.3547 32.0708 17.08C32.7321 17.8053 33.7028 18.168 34.9828 18.168C36.2628 18.168 37.2441 17.8053 37.9268 17.08C38.6094 16.3547 38.9508 15.32 38.9508 13.976V0.535999H44.4228V13.944C44.4228 15.9493 43.9961 17.6453 43.1428 19.032C42.2894 20.4187 41.1374 21.464 39.6868 22.168C38.2574 22.872 36.6574 23.224 34.8868 23.224C33.1161 23.224 31.5268 22.8827 30.1188 22.2C28.7321 21.496 27.6334 20.4507 26.8228 19.064C26.0121 17.656 25.6068 15.9493 25.6068 13.944V0.535999H31.0788ZM69.6705 0.535999V4.92H60.5185V9.656H67.3665V13.912H60.5185V23H55.0465V0.535999H69.6705ZM84.0025 23L79.3305 14.52H78.0185V23H72.5465V0.535999H81.7305C83.5012 0.535999 85.0052 0.845332 86.2425 1.464C87.5012 2.08267 88.4398 2.936 89.0585 4.024C89.6772 5.09067 89.9865 6.28533 89.9865 7.608C89.9865 9.10133 89.5598 10.4347 88.7065 11.608C87.8745 12.7813 86.6372 13.6133 84.9945 14.104L90.1785 23H84.0025ZM78.0185 10.648H81.4105C82.4132 10.648 83.1598 10.4027 83.6505 9.912C84.1625 9.42133 84.4185 8.728 84.4185 7.832C84.4185 6.97867 84.1625 6.30667 83.6505 5.816C83.1598 5.32533 82.4132 5.08 81.4105 5.08H78.0185V10.648ZM98.8935 4.92V9.464H106.222V13.688H98.8935V18.616H107.182V23H93.4215V0.535999H107.182V4.92H98.8935ZM116.206 4.92V9.464H123.534V13.688H116.206V18.616H124.494V23H110.734V0.535999H124.494V4.92H116.206ZM133.519 18.776H140.687V23H128.047V0.535999H133.519V18.776ZM157.281 19.032H148.897L147.553 23H141.825L149.953 0.535999H156.289L164.417 23H158.625L157.281 19.032ZM155.873 14.808L153.089 6.584L150.337 14.808H155.873ZM186.986 23H181.514L172.362 9.144V23H166.89V0.535999H172.362L181.514 14.456V0.535999H186.986V23ZM190.025 11.736C190.025 9.51733 190.505 7.544 191.465 5.816C192.425 4.06667 193.758 2.712 195.465 1.752C197.193 0.770665 199.145 0.279999 201.321 0.279999C203.987 0.279999 206.27 0.983999 208.169 2.392C210.067 3.8 211.337 5.72 211.977 8.152H205.961C205.513 7.21333 204.873 6.49867 204.041 6.008C203.23 5.51733 202.302 5.272 201.257 5.272C199.571 5.272 198.206 5.85867 197.161 7.032C196.115 8.20533 195.593 9.77333 195.593 11.736C195.593 13.6987 196.115 15.2667 197.161 16.44C198.206 17.6133 199.571 18.2 201.257 18.2C202.302 18.2 203.23 17.9547 204.041 17.464C204.873 16.9733 205.513 16.2587 205.961 15.32H211.977C211.337 17.752 210.067 19.672 208.169 21.08C206.27 22.4667 203.987 23.16 201.321 23.16C199.145 23.16 197.193 22.68 195.465 21.72C193.758 20.7387 192.425 19.384 191.465 17.656C190.505 15.928 190.025 13.9547 190.025 11.736ZM220.8 4.92V9.464H228.128V13.688H220.8V18.616H229.088V23H215.328V0.535999H229.088V4.92H220.8Z" fill="black"/>
</svg>
