<svg width="24" height="24" viewBox="0 0 24 24" fill="none" xmlns="http://www.w3.org/2000/svg">
<path d="M13.0002 11H18.0002L16.5002 9.50003L17.9202 8.08003L21.8402 12L17.9202 15.92L16.5002 14.5L18.0002 13H13.0002V18L14.5002 16.5L15.9202 17.92L12.0002 21.84L8.08016 17.92L9.50016 16.5L11.0002 18V13H6.00016L7.50016 14.5L6.08016 15.92L2.16016 12L6.08016 8.08003L7.50016 9.50003L6.00016 11H11.0002V6.00003L9.50016 7.50003L8.08016 6.08003L12.0002 2.16003L15.9202 6.08003L14.5002 7.50003L13.0002 6.00003V11Z" fill="#424242"/>
</svg>
