<svg width="25" height="24" viewBox="0 0 25 24" fill="none" xmlns="http://www.w3.org/2000/svg">
<path d="M12.5 17.5C13.75 17.5 14.8127 17.0623 15.688 16.187C16.5633 15.3117 17.0007 14.2493 17 13C17 11.75 16.5623 10.6873 15.687 9.812C14.8117 8.93667 13.7493 8.49933 12.5 8.5C11.25 8.5 10.1873 8.93767 9.312 9.813C8.43667 10.6883 7.99934 11.7507 8 13C8 14.25 8.43767 15.3127 9.313 16.188C10.1883 17.0633 11.2507 17.5007 12.5 17.5ZM12.5 15.5C11.8 15.5 11.2083 15.2583 10.725 14.775C10.2417 14.2917 10 13.7 10 13C10 12.3 10.2417 11.7083 10.725 11.225C11.2083 10.7417 11.8 10.5 12.5 10.5C13.2 10.5 13.7917 10.7417 14.275 11.225C14.7583 11.7083 15 12.3 15 13C15 13.7 14.7583 14.2917 14.275 14.775C13.7917 15.2583 13.2 15.5 12.5 15.5ZM4.5 21C3.95 21 3.479 20.804 3.087 20.412C2.695 20.02 2.49934 19.5493 2.5 19V7C2.5 6.45 2.696 5.979 3.088 5.587C3.48 5.195 3.95067 4.99933 4.5 5H7.65L9.5 3H15.5L17.35 5H20.5C21.05 5 21.521 5.196 21.913 5.588C22.305 5.98 22.5007 6.45067 22.5 7V19C22.5 19.55 22.304 20.021 21.912 20.413C21.52 20.805 21.0493 21.0007 20.5 21H4.5ZM20.5 19V7H16.45L14.625 5H10.375L8.55 7H4.5V19H20.5Z" fill="white"/>
</svg>
