<svg width="24" height="24" viewBox="0 0 24 24" fill="none" xmlns="http://www.w3.org/2000/svg">
<path d="M21.7102 8.71005C22.9602 7.46005 22.3902 6.00005 21.7102 5.29005L18.7102 2.29005C17.4502 1.04005 16.0002 1.61005 15.2902 2.29005L13.5902 4.00005H11.0002C9.10017 4.00005 8.00017 5.00005 7.44017 6.15005L3.00017 10.5901V14.5901L2.29017 15.2901C1.04017 16.5501 1.61017 18.0001 2.29017 18.7101L5.29017 21.7101C5.83017 22.2501 6.41017 22.4501 6.96017 22.4501C7.67017 22.4501 8.32017 22.1001 8.71017 21.7101L11.4102 19.0001H15.0002C16.7002 19.0001 17.5602 17.9401 17.8702 16.9001C19.0002 16.6001 19.6202 15.7401 19.8702 14.9001C21.4202 14.5001 22.0002 13.0301 22.0002 12.0001V9.00005H21.4102L21.7102 8.71005ZM20.0002 12.0001C20.0002 12.4501 19.8102 13.0001 19.0002 13.0001H18.0002V14.0001C18.0002 14.4501 17.8102 15.0001 17.0002 15.0001H16.0002V16.0001C16.0002 16.4501 15.8102 17.0001 15.0002 17.0001H10.5902L7.31017 20.2801C7.00017 20.5701 6.82017 20.4001 6.71017 20.2901L3.72017 17.3101C3.43017 17.0001 3.60017 16.8201 3.71017 16.7101L5.00017 15.4101V11.4101L7.00017 9.41005V11.0001C7.00017 12.2101 7.80017 14.0001 10.0002 14.0001C12.2002 14.0001 13.0002 12.2101 13.0002 11.0001H20.0002V12.0001ZM20.2902 7.29005L18.5902 9.00005H11.0002V11.0001C11.0002 11.4501 10.8102 12.0001 10.0002 12.0001C9.19017 12.0001 9.00017 11.4501 9.00017 11.0001V8.00005C9.00017 7.54005 9.17017 6.00005 11.0002 6.00005H14.4102L16.6902 3.72005C17.0002 3.43005 17.1802 3.60005 17.2902 3.71005L20.2802 6.69005C20.5702 7.00005 20.4002 7.18005 20.2902 7.29005Z" fill="#424242"/>
</svg>
