<svg width="38" height="38" viewBox="0 0 38 38" fill="none" xmlns="http://www.w3.org/2000/svg">
<path d="M26.6962 19C26.0829 19 25.4947 18.7564 25.061 18.3227C24.6273 17.889 24.3837 17.3008 24.3837 16.6875C24.3837 16.0742 24.6273 15.486 25.061 15.0523C25.4947 14.6186 26.0829 14.375 26.6962 14.375C27.3095 14.375 27.8977 14.6186 28.3314 15.0523C28.7651 15.486 29.0087 16.0742 29.0087 16.6875C29.0087 17.3008 28.7651 17.889 28.3314 18.3227C27.8977 18.7564 27.3095 19 26.6962 19ZM22.0712 12.8333C21.4579 12.8333 20.8697 12.5897 20.436 12.156C20.0023 11.7223 19.7587 11.1341 19.7587 10.5208C19.7587 9.90752 20.0023 9.31933 20.436 8.88565C20.8697 8.45197 21.4579 8.20833 22.0712 8.20833C22.6845 8.20833 23.2727 8.45197 23.7064 8.88565C24.1401 9.31933 24.3837 9.90752 24.3837 10.5208C24.3837 11.1341 24.1401 11.7223 23.7064 12.156C23.2727 12.5897 22.6845 12.8333 22.0712 12.8333ZM14.3629 12.8333C13.7496 12.8333 13.1614 12.5897 12.7277 12.156C12.294 11.7223 12.0504 11.1341 12.0504 10.5208C12.0504 9.90752 12.294 9.31933 12.7277 8.88565C13.1614 8.45197 13.7496 8.20833 14.3629 8.20833C14.9762 8.20833 15.5644 8.45197 15.9981 8.88565C16.4317 9.31933 16.6754 9.90752 16.6754 10.5208C16.6754 11.1341 16.4317 11.7223 15.9981 12.156C15.5644 12.5897 14.9762 12.8333 14.3629 12.8333ZM9.73787 19C9.12456 19 8.53637 18.7564 8.10269 18.3227C7.66901 17.889 7.42537 17.3008 7.42537 16.6875C7.42537 16.0742 7.66901 15.486 8.10269 15.0523C8.53637 14.6186 9.12456 14.375 9.73787 14.375C10.3512 14.375 10.9394 14.6186 11.3731 15.0523C11.8067 15.486 12.0504 16.0742 12.0504 16.6875C12.0504 17.3008 11.8067 17.889 11.3731 18.3227C10.9394 18.7564 10.3512 19 9.73787 19ZM18.217 5.125C14.5372 5.125 11.008 6.58683 8.40593 9.18889C5.80387 11.791 4.34204 15.3201 4.34204 19C4.34204 22.6799 5.80387 26.209 8.40593 28.8111C11.008 31.4132 14.5372 32.875 18.217 32.875C18.8304 32.875 19.4185 32.6314 19.8522 32.1977C20.2859 31.764 20.5295 31.1758 20.5295 30.5625C20.5295 29.9612 20.2983 29.4217 19.9283 29.0208C19.5737 28.6046 19.3425 28.065 19.3425 27.4792C19.3425 26.8659 19.5861 26.2777 20.0198 25.844C20.4535 25.4103 21.0416 25.1667 21.655 25.1667H24.3837C26.4281 25.1667 28.3887 24.3545 29.8343 22.9089C31.2799 21.4634 32.092 19.5027 32.092 17.4583C32.092 10.6442 25.8791 5.125 18.217 5.125Z" fill="white"/>
</svg>
