<svg width="38" height="38" viewBox="0 0 38 38" fill="none" xmlns="http://www.w3.org/2000/svg">
<path d="M18.5976 5.125C16.6396 5.125 14.8976 6.35833 14.2501 8.20833H4.72256V11.2917H7.72881L3.18089 22.0833C2.45631 25.1667 4.72256 26.7083 8.57673 26.7083C12.4309 26.7083 14.8359 25.1667 13.9726 22.0833L9.42465 11.2917H14.2346C14.7434 12.6021 15.7455 13.6042 17.0559 14.1129V31.3333H3.18089V34.4167H34.0142V31.3333H20.1392V14.0975C21.4496 13.6042 22.4517 12.6021 22.9451 11.2917H27.7705L23.2226 22.0833C22.498 25.1667 24.7642 26.7083 28.6184 26.7083C32.4726 26.7083 34.8776 25.1667 34.0142 22.0833L29.4663 11.2917H32.4726V8.20833H22.9605C22.2976 6.35833 20.5555 5.125 18.5976 5.125ZM18.5976 8.20833C19.0064 8.20833 19.3986 8.37076 19.6877 8.65988C19.9768 8.949 20.1392 9.34112 20.1392 9.75C20.1392 10.1589 19.9768 10.551 19.6877 10.8401C19.3986 11.1292 19.0064 11.2917 18.5976 11.2917C18.1887 11.2917 17.7966 11.1292 17.5074 10.8401C17.2183 10.551 17.0559 10.1589 17.0559 9.75C17.0559 9.34112 17.2183 8.949 17.5074 8.65988C17.7966 8.37076 18.1887 8.20833 18.5976 8.20833ZM8.57673 16.3021L10.8892 22.0833H6.26423L8.57673 16.3021ZM28.6184 16.3021L30.9309 22.0833H26.3059L28.6184 16.3021Z" fill="white"/>
</svg>
