<svg width="25" height="24" viewBox="0 0 25 24" fill="none" xmlns="http://www.w3.org/2000/svg">
<path d="M16.5 13V5H6.5V13C6.5 13.5304 6.71071 14.0391 7.08579 14.4142C7.46086 14.7893 7.96957 15 8.5 15H14.5C15.0304 15 15.5391 14.7893 15.9142 14.4142C16.2893 14.0391 16.5 13.5304 16.5 13ZM5.5 3H20.5C21.0304 3 21.5391 3.21071 21.9142 3.58579C22.2893 3.96086 22.5 4.46957 22.5 5V8C22.5 8.53043 22.2893 9.03914 21.9142 9.41421C21.5391 9.78929 21.0304 10 20.5 10H18.5V13C18.5 14.0609 18.0786 15.0783 17.3284 15.8284C16.5783 16.5786 15.5609 17 14.5 17H8.5C7.43913 17 6.42172 16.5786 5.67157 15.8284C4.92143 15.0783 4.5 14.0609 4.5 13V4C4.5 3.73478 4.60536 3.48043 4.79289 3.29289C4.98043 3.10536 5.23478 3 5.5 3ZM18.5 5V8H20.5V5H18.5ZM2.5 19H20.5V21H2.5V19Z" fill="white"/>
</svg>
