<svg width="25" height="24" viewBox="0 0 25 24" fill="none" xmlns="http://www.w3.org/2000/svg">
<path fill-rule="evenodd" clip-rule="evenodd" d="M6.208 13.35C6.833 11.43 7.958 8.97097 9.965 6.96397C13.899 3.02997 19.617 2.44897 19.762 2.43397C19.9459 2.41553 20.1313 2.44816 20.2978 2.52825C20.4644 2.60835 20.6056 2.73282 20.706 2.88797C20.914 3.20097 22.086 5.17097 20.515 7.55097C20.4328 7.67316 20.3405 7.78823 20.239 7.89497C20.2523 8.01909 20.2421 8.1446 20.209 8.26497C20.019 8.95397 19.775 9.67697 19.459 10.4C18.908 11.663 18.131 12.94 17.036 14.036C14.986 16.086 12.294 17.027 10.192 17.466C9.24184 17.6641 8.27812 17.7904 7.309 17.844C7.278 18.09 7 20.57 7 21C7 21.2652 6.89464 21.5195 6.70711 21.7071C6.51957 21.8946 6.26522 22 6 22C5.73478 22 5.48043 21.8946 5.29289 21.7071C5.10536 21.5195 5 21.2652 5 21C5 20.429 5.116 19.33 5.221 18.44C5.426 16.708 5.667 15.013 6.208 13.35ZM18.845 6.44997C19.372 5.64997 19.365 4.96997 19.26 4.52997C17.733 4.80497 14.041 5.71597 11.379 8.37897C9.675 10.082 8.679 12.219 8.11 13.969C7.91217 14.5763 7.74726 15.1939 7.616 15.819C8.34412 15.7612 9.06788 15.6576 9.783 15.509C11.703 15.107 13.961 14.281 15.621 12.621C16.471 11.771 17.105 10.764 17.575 9.71597C16.599 10.236 15.557 10.702 14.816 10.949C14.6914 10.9905 14.5598 11.007 14.4288 10.9977C14.2978 10.9883 14.1699 10.9532 14.0524 10.8945C13.8152 10.7757 13.6348 10.5677 13.551 10.316C13.4672 10.0643 13.4868 9.7896 13.6055 9.55237C13.7242 9.31514 13.9323 9.13478 14.184 9.05097C14.858 8.82597 15.942 8.33797 16.938 7.78597C17.432 7.51197 17.884 7.23297 18.239 6.97797C18.623 6.70197 18.799 6.51897 18.845 6.44997Z" fill="white"/>
</svg>
