<svg width="32" height="32" viewBox="0 0 32 32" fill="none" xmlns="http://www.w3.org/2000/svg">
<circle cx="16" cy="16" r="16" fill="#D62B70"/>
<path d="M24.0916 13.2587C25.1332 12.2171 24.6582 11.0004 24.0916 10.4087L21.5916 7.90872C20.5416 6.86706 19.3332 7.34206 18.7416 7.90872L17.3249 9.33372H15.1666C13.5832 9.33372 12.6666 10.1671 12.1999 11.1254L8.4999 14.8254V18.1587L7.90823 18.7421C6.86657 19.7921 7.34157 21.0004 7.90823 21.5921L10.4082 24.0921C10.8582 24.5421 11.3416 24.7087 11.7999 24.7087C12.3916 24.7087 12.9332 24.4171 13.2582 24.0921L15.5082 21.8337H18.4999C19.9166 21.8337 20.6332 20.9504 20.8916 20.0837C21.8332 19.8337 22.3499 19.1171 22.5582 18.4171C23.8499 18.0837 24.3332 16.8587 24.3332 16.0004V13.5004H23.8416L24.0916 13.2587ZM22.6666 16.0004C22.6666 16.3754 22.5082 16.8337 21.8332 16.8337H20.9999V17.6671C20.9999 18.0421 20.8416 18.5004 20.1666 18.5004H19.3332V19.3337C19.3332 19.7087 19.1749 20.1671 18.4999 20.1671H14.8249L12.0916 22.9004C11.8332 23.1421 11.6832 23.0004 11.5916 22.9087L9.0999 20.4254C8.85823 20.1671 8.9999 20.0171 9.09157 19.9254L10.1666 18.8421V15.5087L11.8332 13.8421V15.1671C11.8332 16.1754 12.4999 17.6671 14.3332 17.6671C16.1666 17.6671 16.8332 16.1754 16.8332 15.1671H22.6666V16.0004ZM22.9082 12.0754L21.4916 13.5004H15.1666V15.1671C15.1666 15.5421 15.0082 16.0004 14.3332 16.0004C13.6582 16.0004 13.4999 15.5421 13.4999 15.1671V12.6671C13.4999 12.2837 13.6416 11.0004 15.1666 11.0004H18.0082L19.9082 9.10039C20.1666 8.85872 20.3166 9.00039 20.4082 9.09206L22.8999 11.5754C23.1416 11.8337 22.9999 11.9837 22.9082 12.0754Z" fill="white"/>
</svg>
