<svg width="37" height="38" viewBox="0 0 37 38" fill="none" xmlns="http://www.w3.org/2000/svg">
<path d="M18.4997 27.4792C20.4268 27.4792 22.065 26.8049 23.4145 25.4565C24.763 24.107 25.4372 22.4687 25.4372 20.5417C25.4372 18.6146 24.763 16.9763 23.4145 15.6268C22.065 14.2784 20.4268 13.6042 18.4997 13.6042C16.5726 13.6042 14.9343 14.2784 13.5848 15.6268C12.2364 16.9763 11.5622 18.6146 11.5622 20.5417C11.5622 22.4687 12.2364 24.107 13.5848 25.4565C14.9343 26.8049 16.5726 27.4792 18.4997 27.4792ZM6.16634 32.875C5.31842 32.875 4.59281 32.5733 3.98951 31.97C3.38517 31.3657 3.08301 30.6396 3.08301 29.7917V11.2917C3.08301 10.4437 3.38517 9.71814 3.98951 9.11483C4.59281 8.5105 5.31842 8.20833 6.16634 8.20833H11.0226L12.9497 6.12708C13.2323 5.79306 13.5725 5.54228 13.9703 5.37475C14.369 5.20825 14.7868 5.125 15.2236 5.125H21.7757C22.2125 5.125 22.6303 5.20825 23.0291 5.37475C23.4268 5.54228 23.767 5.79306 24.0497 6.12708L25.9768 8.20833H30.833C31.6809 8.20833 32.4071 8.5105 33.0114 9.11483C33.6147 9.71814 33.9163 10.4437 33.9163 11.2917V29.7917C33.9163 30.6396 33.6147 31.3657 33.0114 31.97C32.4071 32.5733 31.6809 32.875 30.833 32.875H6.16634Z" fill="white"/>
</svg>
