<svg width="50" height="50" viewBox="0 0 50 50" fill="none" xmlns="http://www.w3.org/2000/svg">
<path d="M42.1875 10.1562H7.81254C7.19094 10.1562 6.5948 10.4032 6.15526 10.8427C5.71572 11.2823 5.46879 11.8784 5.46879 12.5V43.75C5.46602 44.1969 5.59225 44.6351 5.83233 45.012C6.07241 45.3889 6.41615 45.6886 6.82231 45.875C7.13281 46.0183 7.47057 46.0929 7.81254 46.0938C8.36287 46.0933 8.89516 45.8974 9.3145 45.541L9.32622 45.5293L15.6036 40.0273C15.7461 39.9073 15.9269 39.8422 16.1133 39.8438H42.1875C42.8091 39.8438 43.4053 39.5968 43.8448 39.1573C44.2844 38.7177 44.5313 38.1216 44.5313 37.5V12.5C44.5313 11.8784 44.2844 11.2823 43.8448 10.8427C43.4053 10.4032 42.8091 10.1562 42.1875 10.1562ZM42.9688 37.5C42.9688 37.7072 42.8865 37.9059 42.74 38.0524C42.5935 38.1989 42.3947 38.2812 42.1875 38.2812H16.1133C15.5559 38.2828 15.017 38.4814 14.5918 38.8418L8.31059 44.3496C8.19652 44.444 8.05797 44.504 7.91109 44.5227C7.76421 44.5414 7.61505 44.5179 7.48098 44.4551C7.34691 44.3923 7.23346 44.2926 7.15385 44.1678C7.07423 44.043 7.03173 43.8981 7.03129 43.75V12.5C7.03129 12.2928 7.11361 12.0941 7.26012 11.9476C7.40663 11.8011 7.60534 11.7188 7.81254 11.7188H42.1875C42.3947 11.7188 42.5935 11.8011 42.74 11.9476C42.8865 12.0941 42.9688 12.2928 42.9688 12.5V37.5Z" fill="#666666"/>
</svg>
