<svg width="48" height="48" viewBox="0 0 48 48" fill="none" xmlns="http://www.w3.org/2000/svg">
<path d="M23.9996 44.25C20.6994 44.2528 17.4487 43.4481 14.5308 41.9063L9.20582 43.425C8.56357 43.6073 7.88432 43.6148 7.23821 43.4467C6.5921 43.2787 6.00256 42.9412 5.53049 42.4691C5.05843 41.997 4.72094 41.4075 4.55289 40.7614C4.38484 40.1153 4.39233 39.436 4.57457 38.7938L6.09332 33.4688C4.02406 29.557 3.29318 25.0751 4.01248 20.7086C4.73177 16.3421 6.86165 12.3314 10.0763 9.29007C13.291 6.24873 17.4134 4.34418 21.813 3.86773C26.2126 3.39128 30.6472 4.36918 34.4384 6.65184C38.2296 8.9345 41.1687 12.3962 42.8061 16.5075C44.4435 20.6188 44.689 25.1533 43.5051 29.4174C42.3212 33.6814 39.7731 37.4403 36.2506 40.1189C32.728 42.7976 28.4249 44.2486 23.9996 44.25ZM14.8121 37.2375C15.2163 37.2294 15.6141 37.3402 15.9558 37.5563C18.3953 38.9875 21.1713 39.7446 23.9996 39.75C27.1146 39.75 30.1597 38.8263 32.7498 37.0957C35.3399 35.365 37.3586 32.9052 38.5507 30.0273C39.7428 27.1494 40.0547 23.9826 39.4469 20.9274C38.8392 17.8722 37.3392 15.0658 35.1365 12.8631C32.9338 10.6604 30.1274 9.16037 27.0722 8.55266C24.017 7.94494 20.8502 8.25684 17.9723 9.44892C15.0944 10.641 12.6346 12.6597 10.9039 15.2498C9.17329 17.8399 8.24957 20.885 8.24957 24C8.25501 26.8283 9.01211 29.6043 10.4433 32.0438C10.6027 32.3051 10.7065 32.5965 10.7485 32.8997C10.7904 33.2029 10.7695 33.5115 10.6871 33.8063L9.28082 38.7188L14.1933 37.3125C14.3953 37.2599 14.6034 37.2346 14.8121 37.2375Z" fill="#E165AB"/>
</svg>
