<svg width="183" height="182" viewBox="0 0 183 182" fill="none" xmlns="http://www.w3.org/2000/svg">
<path d="M86.187 109.953L123.729 72.4106L123.74 72.4207L80.8837 115.277L59.2611 93.654L59.2712 93.6439L75.5804 109.953L80.8837 115.256L86.187 109.953ZM23.3337 90.9998C23.3337 98.0821 24.2674 104.796 26.1304 111.118C24.1603 104.762 23.167 98.0659 23.167 90.9998C23.167 83.9338 24.1603 77.2382 26.1303 70.8819C24.2674 77.2035 23.3337 83.9176 23.3337 90.9998ZM43.1616 42.6611C42.1347 43.688 41.1476 44.7335 40.2001 45.7975C41.1494 44.7181 42.1332 43.6694 43.1515 42.6511C44.1759 41.6267 45.231 40.6372 46.3171 39.6826C45.2465 40.6352 44.1946 41.6281 43.1616 42.6611ZM91.5003 22.6665C98.671 22.6665 105.46 23.688 111.9 25.7136C105.496 23.7949 98.688 22.8332 91.5003 22.8332C84.3127 22.8332 77.5043 23.7949 71.1005 25.7136C77.5406 23.688 84.3297 22.6665 91.5003 22.6665ZM139.839 42.6611C138.806 41.6276 137.753 40.6343 136.682 39.6813C137.769 40.6363 138.824 41.6262 139.849 42.6511C140.868 43.67 141.852 44.7193 142.802 45.7993C141.854 44.7347 140.866 43.6886 139.839 42.6611ZM159.667 90.9998C159.667 83.9174 158.733 77.2032 156.87 70.8813C158.84 77.2378 159.834 83.9336 159.834 90.9998C159.834 98.0661 158.84 104.762 156.87 111.118C158.733 104.797 159.667 98.0823 159.667 90.9998ZM139.839 139.339C140.867 138.311 141.855 137.264 142.803 136.199C141.853 137.28 140.868 138.329 139.849 139.349C138.83 140.368 137.78 141.352 136.7 142.302C137.765 141.354 138.811 140.366 139.839 139.339ZM91.5003 159.167C98.5828 159.167 105.297 158.233 111.619 156.37C105.262 158.34 98.5666 159.333 91.5003 159.333C84.4341 159.333 77.7383 158.34 71.3818 156.37C77.7036 158.233 84.4179 159.167 91.5003 159.167ZM43.1616 139.339C44.1891 140.366 45.2352 141.354 46.2997 142.302C45.2198 141.352 44.1705 140.368 43.1515 139.349C42.1327 138.33 41.1485 137.281 40.1989 136.201C41.1467 137.265 42.1343 138.311 43.1616 139.339Z" fill="#D62B70" stroke="#D62B70" stroke-width="15"/>
</svg>
