<svg width="152" height="152" viewBox="0 0 152 152" fill="none" xmlns="http://www.w3.org/2000/svg">
<path d="M139.175 95.475C139.801 96.5585 140.13 97.7875 140.13 99.0386C140.129 100.29 139.8 101.519 139.174 102.602C138.548 103.685 137.648 104.585 136.564 105.21C135.48 105.835 134.251 106.163 133 106.162C131.746 106.176 130.512 105.852 129.426 105.225C128.339 104.599 127.441 103.692 126.825 102.6L117.147 85.8562C111.697 89.2671 105.83 91.9612 99.6906 93.8719L102.778 111.328C102.949 112.249 102.935 113.194 102.737 114.11C102.539 115.025 102.161 115.892 101.625 116.66C101.089 117.428 100.406 118.081 99.6153 118.583C98.8245 119.084 97.9419 119.424 97.0188 119.581L95.7719 119.7C94.1 119.698 92.482 119.108 91.2012 118.033C89.9204 116.959 89.0582 115.468 88.7656 113.822L85.7375 96.7812C82.5084 97.1951 79.2554 97.3934 76 97.375C72.7258 97.3619 69.455 97.1636 66.2031 96.7812L63.175 113.822C62.8824 115.468 62.0203 116.959 60.7394 118.033C59.4586 119.108 57.8407 119.698 56.1687 119.7L54.9219 119.581C53.9988 119.424 53.1162 119.084 52.3254 118.583C51.5346 118.081 50.8514 117.428 50.3155 116.66C49.7796 115.892 49.4017 115.025 49.2037 114.11C49.0058 113.194 48.9918 112.249 49.1625 111.328L52.25 93.8719C46.1299 91.9608 40.2825 89.2666 34.8531 85.8562L25.1156 102.719C24.4853 103.799 23.5841 104.695 22.5012 105.32C21.4182 105.945 20.1909 106.276 18.9406 106.281C17.6892 106.291 16.4584 105.963 15.3781 105.331C14.5668 104.864 13.8556 104.241 13.2852 103.498C12.7147 102.756 12.2962 101.908 12.0536 101.004C11.811 100.1 11.749 99.1563 11.8711 98.228C11.9933 97.2996 12.2973 96.4045 12.7656 95.5937L23.3937 77.1875C19.7973 73.9926 16.48 70.4965 13.4781 66.7375C12.8222 66.0211 12.3198 65.1781 12.0016 64.2604C11.6834 63.3427 11.5562 62.3697 11.6278 61.401C11.6994 60.4324 11.9683 59.4886 12.418 58.6277C12.8676 57.7667 13.4886 57.0068 14.2427 56.3946C14.9967 55.7825 15.868 55.3309 16.803 55.0678C17.738 54.8046 18.7169 54.7354 19.6796 54.8644C20.6422 54.9934 21.5684 55.3178 22.4011 55.8178C23.2338 56.3178 23.9555 56.9828 24.5219 57.7718C33.9031 69.35 50.4094 83.125 76 83.125C101.591 83.125 118.097 69.35 127.478 57.7718C128.044 56.9828 128.766 56.3178 129.599 55.8178C130.432 55.3178 131.358 54.9934 132.32 54.8644C133.283 54.7354 134.262 54.8046 135.197 55.0678C136.132 55.3309 137.003 55.7825 137.757 56.3946C138.511 57.0068 139.132 57.7667 139.582 58.6277C140.032 59.4886 140.301 60.4324 140.372 61.401C140.444 62.3697 140.317 63.3427 139.998 64.2604C139.68 65.1781 139.178 66.0211 138.522 66.7375C135.506 70.5029 132.19 74.0175 128.606 77.2469L139.175 95.475Z" fill="black"/>
</svg>
