<svg width="24" height="24" viewBox="0 0 24 24" fill="none" xmlns="http://www.w3.org/2000/svg">
<path d="M21.9751 15.075C22.0739 15.2461 22.1259 15.4401 22.1258 15.6377C22.1258 15.8352 22.0737 16.0293 21.9749 16.2003C21.8761 16.3713 21.734 16.5134 21.5629 16.612C21.3917 16.7107 21.1976 16.7626 21.0001 16.7625C20.8021 16.7646 20.6072 16.7135 20.4357 16.6145C20.2642 16.5156 20.1224 16.3724 20.0251 16.2L18.497 13.5562C17.6364 14.0948 16.71 14.5202 15.7407 14.8219L16.2282 17.5781C16.2552 17.7235 16.253 17.8728 16.2217 18.0173C16.1905 18.1618 16.1308 18.2987 16.0462 18.4199C15.9616 18.5412 15.8537 18.6444 15.7288 18.7236C15.604 18.8028 15.4646 18.8564 15.3189 18.8812L15.122 18.9C14.858 18.8997 14.6025 18.8065 14.4003 18.6368C14.1981 18.4672 14.0619 18.2318 14.0157 17.9719L13.5376 15.2812C13.0278 15.3466 12.5141 15.3779 12.0001 15.375C11.4831 15.3729 10.9667 15.3416 10.4532 15.2812L9.9751 17.9719C9.92891 18.2318 9.79278 18.4672 9.59054 18.6368C9.3883 18.8065 9.13284 18.8997 8.86885 18.9L8.67198 18.8812C8.52622 18.8564 8.38687 18.8028 8.262 18.7236C8.13714 18.6444 8.02927 18.5412 7.94465 18.4199C7.86003 18.2987 7.80037 18.1618 7.76911 18.0173C7.73786 17.8728 7.73565 17.7235 7.7626 17.5781L8.2501 14.8219C7.28377 14.5201 6.36049 14.0947 5.50323 13.5562L3.96573 16.2187C3.86621 16.3892 3.72391 16.5308 3.55292 16.6295C3.38192 16.7281 3.18814 16.7804 2.99073 16.7812C2.79314 16.7828 2.59879 16.731 2.42823 16.6312C2.30013 16.5574 2.18783 16.4591 2.09776 16.3419C2.00769 16.2246 1.94161 16.0908 1.9033 15.948C1.86499 15.8052 1.8552 15.6563 1.87449 15.5097C1.89378 15.3631 1.94178 15.2218 2.01573 15.0937L3.69385 12.1875C3.12599 11.683 2.60221 11.131 2.12823 10.5375C2.02467 10.4244 1.94533 10.2913 1.89509 10.1464C1.84485 10.0015 1.82476 9.84784 1.83607 9.6949C1.84737 9.54195 1.88983 9.39293 1.96083 9.257C2.03183 9.12106 2.12988 9.00108 2.24894 8.90442C2.36801 8.80776 2.50558 8.73646 2.65321 8.69491C2.80083 8.65336 2.9554 8.64243 3.1074 8.6628C3.2594 8.68316 3.40564 8.73439 3.53712 8.81334C3.6686 8.89228 3.78256 8.99728 3.87198 9.12187C5.35323 10.95 7.95948 13.125 12.0001 13.125C16.0407 13.125 18.647 10.95 20.1282 9.12187C20.2177 8.99728 20.3316 8.89228 20.4631 8.81334C20.5946 8.73439 20.7408 8.68316 20.8928 8.6628C21.0448 8.64243 21.1994 8.65336 21.347 8.69491C21.4946 8.73646 21.6322 8.80776 21.7513 8.90442C21.8703 9.00108 21.9684 9.12106 22.0394 9.257C22.1104 9.39293 22.1528 9.54195 22.1641 9.6949C22.1754 9.84784 22.1554 10.0015 22.1051 10.1464C22.0549 10.2913 21.9755 10.4244 21.872 10.5375C21.3958 11.132 20.8722 11.687 20.3064 12.1969L21.9751 15.075Z" fill="#151515"/>
</svg>
