<svg width="32" height="32" viewBox="0 0 32 32" fill="none" xmlns="http://www.w3.org/2000/svg">
<circle cx="16" cy="16" r="16" fill="#D62B70"/>
<path d="M22.2889 20.9606C22.3763 21.0477 22.4457 21.1512 22.493 21.2652C22.5403 21.3791 22.5647 21.5013 22.5647 21.6247C22.5647 21.7481 22.5403 21.8702 22.493 21.9842C22.4457 22.0981 22.3763 22.2016 22.2889 22.2887C22.112 22.4634 21.8734 22.5613 21.6249 22.5613C21.3763 22.5613 21.1377 22.4634 20.9608 22.2887L15.9999 17.3278L11.0389 22.2887C10.862 22.4634 10.6234 22.5613 10.3749 22.5613C10.1263 22.5613 9.88771 22.4634 9.7108 22.2887C9.6234 22.2016 9.55405 22.0981 9.50673 21.9842C9.45942 21.8702 9.43506 21.7481 9.43506 21.6247C9.43506 21.5013 9.45942 21.3791 9.50673 21.2652C9.55405 21.1512 9.6234 21.0477 9.7108 20.9606L14.6717 15.9997L9.7108 11.0387C9.53468 10.8626 9.43573 10.6237 9.43573 10.3747C9.43573 10.2513 9.46003 10.1292 9.50722 10.0153C9.55442 9.90135 9.62359 9.79782 9.7108 9.71061C9.798 9.6234 9.90153 9.55423 10.0155 9.50703C10.1294 9.45984 10.2515 9.43555 10.3749 9.43555C10.6239 9.43555 10.8628 9.53449 11.0389 9.71061L15.9999 14.6715L20.9608 9.71061C21.1369 9.53449 21.3758 9.43555 21.6249 9.43555C21.8739 9.43555 22.1128 9.53449 22.2889 9.71061C22.465 9.88673 22.564 10.1256 22.564 10.3747C22.564 10.6237 22.465 10.8626 22.2889 11.0387L17.328 15.9997L22.2889 20.9606Z" fill="white"/>
</svg>
