<svg width="228" height="435" viewBox="0 0 228 435" fill="none" xmlns="http://www.w3.org/2000/svg">
<g filter="url(#filter0_d_223_1575)">
<path fill-rule="evenodd" clip-rule="evenodd" d="M121.783 55.5065C124.691 49.3909 125.927 42.5199 123.615 35.8112C116.954 16.4816 90.6925 28.1633 88.0223 39.5355C85.3522 50.9077 92.7439 75.9587 100.114 75.8885C103.054 75.8605 108.445 72.5551 113.444 67.3649L116.795 94.8382L138.888 88.9184L121.783 55.5065Z" fill="#D4A181"/>
<path fill-rule="evenodd" clip-rule="evenodd" d="M113.765 56.17C117.914 60.6946 122.764 63.6395 126.55 62.6252C133.74 60.6986 136.276 49.7159 133.507 39.3803C133.41 39.0172 133.306 38.6584 133.196 38.3042C142.2 41.4855 150.818 50.2027 160.882 47.5061C174.574 43.8374 172.611 14.7643 153.482 19.8899C140.473 23.3757 134.582 26.9872 129.819 31.2697C127.909 28.4947 125.56 26.3611 123.049 25.1041C122.414 24.6856 121.526 24.3605 120.43 24.132C119.754 23.9673 119.073 23.8679 118.392 23.8382C114.739 23.5072 109.69 23.9359 104.259 25.1899C103.245 25.424 102.255 25.6782 101.296 25.9491C99.9213 20.8826 94.7058 17.8797 89.6315 19.2393C84.5475 20.6016 81.5304 25.8273 82.8927 30.9113C84.2101 35.828 89.1409 38.8115 94.0624 37.7705C97.0675 37.8832 100.802 37.5564 104.828 36.7619C104.831 38.3088 105.062 40.0051 105.559 41.8589C105.997 43.4957 106.643 45.1833 107.448 46.8568C108.033 45.6074 109.001 44.6348 110.165 44.3228C113.422 43.4503 116.406 45.5218 117.169 48.3661C118.136 51.976 116.752 55.1459 113.765 56.17Z" fill="#191847"/>
<path fill-rule="evenodd" clip-rule="evenodd" d="M167.067 173.166L132.158 293.462L115.738 383.782H99.2575L115.709 173.166H167.067Z" fill="#BA8B72"/>
<path fill-rule="evenodd" clip-rule="evenodd" d="M182.756 173.166C180.32 235.659 181.281 269.745 181.826 275.423C182.371 281.1 185.466 319.126 206.557 385.688H189.415C161.485 321.833 151.734 283.808 148.531 275.423C145.327 267.038 135.866 232.952 122.053 173.166H182.756Z" fill="#D4A181"/>
<path fill-rule="evenodd" clip-rule="evenodd" d="M167.816 173.166C158.736 214.561 143.03 280.636 120.7 371.393H96.5955C94.8151 278.24 102.389 216.929 115.505 173.166H167.816Z" fill="#344986"/>
<path fill-rule="evenodd" clip-rule="evenodd" d="M182.878 173.166C180.493 235.659 186.675 297.227 205.826 372.366H180.108C152.126 309.464 132.07 248.201 118.363 173.166H182.878Z" fill="#4285F4"/>
<path fill-rule="evenodd" clip-rule="evenodd" d="M209 398.077L208.054 382.829C202.517 384.449 195.581 383.813 187.247 380.923C178.286 387.271 167.005 391.605 153.404 393.926C152.366 394.103 151.669 395.088 151.846 396.126C151.857 396.193 151.872 396.26 151.891 396.325L153.198 400.936H187.247H207.108L209 398.077Z" fill="#191847"/>
<path fill-rule="evenodd" clip-rule="evenodd" d="M119.417 398.077L118.471 382.829C112.934 384.449 105.998 383.813 97.6638 380.923C88.7026 387.271 77.4216 391.605 63.8208 393.926C62.7832 394.103 62.0855 395.088 62.2626 396.126C62.2741 396.193 62.2891 396.26 62.3077 396.325L63.6153 400.936H97.6638H117.525L119.417 398.077Z" fill="#191847"/>
<path fill-rule="evenodd" clip-rule="evenodd" d="M98.8779 119.591L63.1555 107.493C56.604 102.016 50.3855 97.9607 44.5002 95.3285C42.7753 94.9411 39.8942 95.0305 43.344 99.2307C46.7937 103.431 50.2334 108.004 49.1482 109.677C48.0629 111.349 44.3712 109.931 43.1952 112.6C42.4112 114.379 48.5569 115.887 61.6325 117.125L89.1247 134.624L98.8779 119.591ZM50.5117 143.641L34.8162 138.304C31.4613 131.018 28.3834 127.597 25.5826 128.041C23.2615 127.422 28.6994 136.417 24.4853 136.297C20.2712 136.176 9.04454 130.545 7.59866 132.345C5.45959 135.009 8.91607 141.419 12.1713 144.337C18.2553 149.791 22.7502 151.231 33.4164 152.273C38.9932 152.818 45.2641 154.775 52.2289 158.145L50.5117 143.641Z" fill="#D4A181"/>
<path fill-rule="evenodd" clip-rule="evenodd" d="M114.042 112.819C102.61 114.711 86.9698 114.984 68.9174 107.541L65.0487 122.884C78.207 132.023 95.5635 138.378 109.264 135.563C120.06 133.345 123.291 119.243 114.042 112.819Z" fill="#D62B70"/>
<path fill-rule="evenodd" clip-rule="evenodd" d="M102.699 138.331C91.1182 143.488 70.1764 143.507 39.8738 138.388C35.3812 154.267 33.9511 165.275 35.5834 171.412C62.2968 179.876 84.266 181.876 101.605 179.207C102.863 189.552 105.83 199.084 111.591 207.256C123.436 224.055 170.891 198.195 188.441 198.544C192.98 162.175 169.971 151.778 166.063 129.708C161.782 105.54 135.814 71.7569 132.958 72.2604L106.917 76.8522C108.735 95.5656 105.09 117.185 102.699 138.331Z" fill="#D62B70"/>
</g>
<defs>
<filter id="filter0_d_223_1575" x="6.9375" y="18.9122" width="221.062" height="416.024" filterUnits="userSpaceOnUse" color-interpolation-filters="sRGB">
<feFlood flood-opacity="0" result="BackgroundImageFix"/>
<feColorMatrix in="SourceAlpha" type="matrix" values="0 0 0 0 0 0 0 0 0 0 0 0 0 0 0 0 0 0 127 0" result="hardAlpha"/>
<feOffset dx="15" dy="30"/>
<feGaussianBlur stdDeviation="2"/>
<feComposite in2="hardAlpha" operator="out"/>
<feColorMatrix type="matrix" values="0 0 0 0 0 0 0 0 0 0 0 0 0 0 0 0 0 0 0.1 0"/>
<feBlend mode="normal" in2="BackgroundImageFix" result="effect1_dropShadow_223_1575"/>
<feBlend mode="normal" in="SourceGraphic" in2="effect1_dropShadow_223_1575" result="shape"/>
</filter>
</defs>
</svg>
