<svg width="245" height="412" viewBox="0 0 245 412" fill="none" xmlns="http://www.w3.org/2000/svg">
<path fill-rule="evenodd" clip-rule="evenodd" d="M142.764 57.0377C146.172 50.7534 147.621 43.6927 144.911 36.7989C137.103 16.9359 106.318 28.94 103.188 40.626C100.058 52.312 108.723 78.0543 117.362 77.9822C120.808 77.9534 127.129 74.5568 132.988 69.2233L136.916 97.4547L162.814 91.3716L142.764 57.0377Z" fill="#D4A181"/>
<path fill-rule="evenodd" clip-rule="evenodd" d="M133.365 57.7199C138.228 62.3694 143.913 65.3956 148.351 64.3533C156.779 62.3736 159.753 51.0877 156.506 40.467C156.392 40.0938 156.271 39.7251 156.141 39.3611C166.697 42.6302 176.799 51.588 188.597 48.817C204.646 45.0471 202.346 15.1717 179.922 20.4388C164.672 24.0208 157.767 27.7319 152.183 32.1326C149.945 29.281 147.191 27.0885 144.248 25.7968C143.503 25.3668 142.461 25.0327 141.177 24.7979C140.384 24.6286 139.586 24.5266 138.788 24.496C134.506 24.1558 128.588 24.5964 122.221 25.885C121.032 26.1256 119.872 26.3868 118.747 26.6651C117.136 21.4589 111.022 18.373 105.074 19.7702C99.1143 21.1701 95.5775 26.54 97.1744 31.7643C98.7188 36.8166 104.499 39.8825 110.268 38.8127C113.791 38.9285 118.169 38.5928 122.888 37.7763C122.892 39.3659 123.162 41.109 123.744 43.0139C124.259 44.696 125.016 46.4301 125.959 48.1498C126.644 46.8659 127.78 45.8664 129.145 45.5459C132.962 44.6492 136.461 46.7779 137.354 49.7007C138.488 53.4103 136.865 56.6676 133.365 57.7199Z" fill="#191847"/>
<path fill-rule="evenodd" clip-rule="evenodd" d="M195.846 177.945L154.923 301.56L135.675 394.372H116.356L135.641 177.945H195.846Z" fill="#BA8B72"/>
<path fill-rule="evenodd" clip-rule="evenodd" d="M214.235 177.945C211.379 242.162 212.506 277.188 213.145 283.023C213.784 288.857 217.412 327.932 242.135 396.331H222.041C189.3 330.714 177.87 291.639 174.115 283.023C170.36 274.406 159.269 239.381 143.077 177.945H214.235Z" fill="#D4A181"/>
<path fill-rule="evenodd" clip-rule="evenodd" d="M196.724 177.945C186.079 220.481 167.669 288.38 141.492 381.641H113.236C111.149 285.918 120.027 222.915 135.402 177.945H196.724Z" fill="#344986"/>
<path fill-rule="evenodd" clip-rule="evenodd" d="M214.378 177.945C211.581 242.162 218.829 305.429 241.278 382.641H211.13C178.329 318.004 154.819 255.049 138.751 177.945H214.378Z" fill="#4285F4"/>
<path fill-rule="evenodd" clip-rule="evenodd" d="M245 409.062L243.891 393.393C237.4 395.057 229.27 394.405 219.5 391.435C208.995 397.957 195.771 402.411 179.828 404.796C178.612 404.978 177.794 405.99 178.001 407.057C178.015 407.126 178.032 407.194 178.054 407.261L179.587 412H219.5H242.783L245 409.062Z" fill="#191847"/>
<path fill-rule="evenodd" clip-rule="evenodd" d="M139.987 409.062L138.879 393.393C132.387 395.057 124.257 394.405 114.487 391.435C103.983 397.957 90.7587 402.411 74.8153 404.796C73.5989 404.978 72.7811 405.99 72.9887 407.057C73.0021 407.126 73.0198 407.194 73.0416 407.261L74.5744 412H114.487H137.77L139.987 409.062Z" fill="#191847"/>
<path fill-rule="evenodd" clip-rule="evenodd" d="M115.909 122.892L74.0336 110.46C66.3536 104.831 59.0641 100.664 52.1651 97.9595C50.1431 97.5614 46.7658 97.6533 50.8097 101.969C54.8536 106.285 58.8858 110.985 57.6136 112.704C56.3414 114.423 52.0138 112.965 50.6353 115.707C49.7162 117.535 56.9205 119.086 72.2482 120.358L104.476 138.34L115.909 122.892ZM59.212 147.605L40.8132 142.121C36.8804 134.634 33.2724 131.118 29.9891 131.575C27.2682 130.938 33.6428 140.182 28.7029 140.058C23.7629 139.935 10.6026 134.148 8.90764 135.998C6.40013 138.735 10.452 145.322 14.2679 148.321C21.3998 153.925 26.6689 155.404 39.1722 156.475C45.7096 157.035 53.0605 159.046 61.2249 162.509L59.212 147.605Z" fill="#D4A181"/>
<path fill-rule="evenodd" clip-rule="evenodd" d="M133.684 115.933C120.284 117.877 101.949 118.157 80.7873 110.509L76.2522 126.275C91.6769 135.667 112.023 142.197 128.083 139.305C140.739 137.026 144.527 122.534 133.684 115.933Z" fill="#D62B70"/>
<path fill-rule="evenodd" clip-rule="evenodd" d="M120.388 142.148C106.813 147.448 82.2638 147.467 46.7418 142.208C41.4755 158.525 39.799 169.836 41.7125 176.142C73.027 184.84 98.7802 186.895 119.105 184.152C120.58 194.783 124.058 204.578 130.812 212.975C144.697 230.238 200.325 203.665 220.898 204.023C226.22 166.651 199.247 155.966 194.665 133.288C189.648 108.453 159.206 73.7373 155.859 74.2548L125.332 78.9732C127.464 98.203 123.191 120.419 120.388 142.148Z" fill="#D62B70"/>
</svg>
