<svg width="40" height="40" viewBox="0 0 40 40" fill="none" xmlns="http://www.w3.org/2000/svg">
<path fill-rule="evenodd" clip-rule="evenodd" d="M12.3407 28.9283C18.0448 28.095 21.9723 28.1666 27.684 28.9575C28.0976 29.0174 28.4756 29.225 28.7481 29.5419C29.0206 29.8589 29.1692 30.2637 29.1665 30.6816C29.1665 31.0816 29.029 31.47 28.7807 31.7733C28.3478 32.3022 27.9044 32.8223 27.4507 33.3333H29.6515C29.7898 33.1683 29.929 33 30.0698 32.8291C30.5641 32.223 30.8338 31.4646 30.8332 30.6825C30.8332 28.995 29.6015 27.5408 27.9123 27.3075C22.0657 26.4983 17.979 26.4208 12.0998 27.28C10.3932 27.5291 9.1665 29.0058 9.1665 30.705C9.1665 31.4591 9.41234 32.205 9.87817 32.8091C10.0157 32.9875 10.1515 33.1625 10.2865 33.3341H12.434C12.0119 32.8287 11.6001 32.3147 11.199 31.7925C10.9606 31.4798 10.8321 31.0973 10.8332 30.7041C10.8332 29.8066 11.4782 29.0541 12.3407 28.9283ZM19.9998 20.8333C20.6564 20.8333 21.3066 20.704 21.9133 20.4527C22.5199 20.2014 23.0711 19.8331 23.5354 19.3688C23.9997 18.9045 24.368 18.3533 24.6192 17.7467C24.8705 17.1401 24.9998 16.4899 24.9998 15.8333C24.9998 15.1767 24.8705 14.5265 24.6192 13.9199C24.368 13.3132 23.9997 12.7621 23.5354 12.2978C23.0711 11.8335 22.5199 11.4652 21.9133 11.2139C21.3066 10.9626 20.6564 10.8333 19.9998 10.8333C18.6738 10.8333 17.402 11.3601 16.4643 12.2978C15.5266 13.2354 14.9998 14.5072 14.9998 15.8333C14.9998 17.1594 15.5266 18.4311 16.4643 19.3688C17.402 20.3065 18.6738 20.8333 19.9998 20.8333ZM19.9998 22.5C21.7679 22.5 23.4636 21.7976 24.7139 20.5473C25.9641 19.2971 26.6665 17.6014 26.6665 15.8333C26.6665 14.0652 25.9641 12.3695 24.7139 11.1192C23.4636 9.869 21.7679 9.16663 19.9998 9.16663C18.2317 9.16663 16.536 9.869 15.2858 11.1192C14.0355 12.3695 13.3332 14.0652 13.3332 15.8333C13.3332 17.6014 14.0355 19.2971 15.2858 20.5473C16.536 21.7976 18.2317 22.5 19.9998 22.5Z" fill="#666666"/>
<path fill-rule="evenodd" clip-rule="evenodd" d="M19.9999 35C28.2841 35 34.9999 28.2841 34.9999 20C34.9999 11.7158 28.2841 4.99998 19.9999 4.99998C11.7158 4.99998 4.99992 11.7158 4.99992 20C4.99992 28.2841 11.7158 35 19.9999 35ZM19.9999 36.6666C29.2049 36.6666 36.6666 29.205 36.6666 20C36.6666 10.795 29.2049 3.33331 19.9999 3.33331C10.7949 3.33331 3.33325 10.795 3.33325 20C3.33325 29.205 10.7949 36.6666 19.9999 36.6666Z" fill="#666666"/>
</svg>
