<svg width="44" height="44" viewBox="0 0 44 44" fill="none" xmlns="http://www.w3.org/2000/svg">
<rect width="44" height="44" rx="22" fill="#EB4335"/>
<path d="M27.4097 20.9375L25.719 19.2468L22.0003 22.9656L18.2815 19.2468L16.5908 20.9375L20.3096 24.6563L16.5908 28.375L18.2815 30.0657L22.0003 26.347L25.719 30.0657L27.4097 28.375L23.691 24.6563L27.4097 20.9375Z" fill="#EB4335"/>
<path d="M9.25 15.625L11.2249 34.3854C11.2661 34.7771 11.4509 35.1397 11.7436 35.4032C12.0363 35.6667 12.4162 35.8125 12.81 35.8125H31.19C31.5838 35.8125 31.9637 35.6667 32.2564 35.4032C32.5491 35.1397 32.7339 34.7771 32.7751 34.3854L34.75 15.625H9.25ZM25.7188 30.0657L22 26.347L18.2812 30.0657L16.5905 28.375L20.3093 24.6562L16.5905 20.9375L18.2812 19.2468L22 22.9655L25.7188 19.2468L27.4095 20.9375L23.6907 24.6562L27.4095 28.375L25.7188 30.0657Z" fill="white"/>
<path d="M36.0781 8.1875H7.92188C7.48177 8.1875 7.125 8.54427 7.125 8.98438V12.7031C7.125 13.1432 7.48177 13.5 7.92188 13.5H36.0781C36.5182 13.5 36.875 13.1432 36.875 12.7031V8.98438C36.875 8.54427 36.5182 8.1875 36.0781 8.1875Z" fill="white"/>
</svg>
