<svg width="201" height="200" viewBox="0 0 201 200" fill="none" xmlns="http://www.w3.org/2000/svg">
<path d="M100.5 15.625C83.8122 15.625 67.4992 20.5735 53.6238 29.8448C39.7484 39.116 28.9338 52.2936 22.5477 67.7111C16.1616 83.1286 14.4907 100.094 17.7463 116.461C21.0019 132.828 29.0379 147.862 40.8379 159.662C52.638 171.462 67.6721 179.498 84.0393 182.754C100.406 186.009 117.371 184.338 132.789 177.952C148.206 171.566 161.384 160.752 170.655 146.876C179.927 133.001 184.875 116.688 184.875 100C184.854 77.6287 175.958 56.1796 160.139 40.3607C144.32 24.5418 122.871 15.6457 100.5 15.625ZM100.5 165.625C87.5206 165.625 74.8327 161.776 64.0407 154.565C53.2488 147.354 44.8374 137.105 39.8704 125.114C34.9034 113.122 33.6039 99.9272 36.136 87.1972C38.6682 74.4672 44.9183 62.7739 54.0962 53.5961C63.274 44.4183 74.9672 38.1681 87.6972 35.636C100.427 33.1038 113.622 34.4034 125.614 39.3704C137.605 44.3374 147.854 52.7487 155.065 63.5407C162.276 74.3327 166.125 87.0206 166.125 100C166.104 117.398 159.184 134.078 146.881 146.381C134.578 158.684 117.899 165.604 100.5 165.625ZM132.141 81.6406L113.781 100L132.141 118.359C133.015 119.23 133.708 120.265 134.181 121.405C134.654 122.544 134.898 123.766 134.898 125C134.898 126.234 134.654 127.456 134.181 128.595C133.708 129.735 133.015 130.77 132.141 131.641C130.372 133.387 127.986 134.366 125.5 134.366C123.014 134.366 120.629 133.387 118.859 131.641L100.5 113.281L82.1407 131.641C80.3715 133.387 77.9858 134.366 75.5 134.366C73.0143 134.366 70.6285 133.387 68.8594 131.641C67.9854 130.77 67.2919 129.735 66.8188 128.595C66.3456 127.456 66.102 126.234 66.102 125C66.102 123.766 66.3456 122.544 66.8188 121.405C67.2919 120.265 67.9854 119.23 68.8594 118.359L87.2188 100L68.8594 81.6406C67.0982 79.8794 66.1088 77.4907 66.1088 75C66.1088 72.5093 67.0982 70.1206 68.8594 68.3594C70.6206 66.5982 73.0093 65.6087 75.5 65.6087C77.9908 65.6087 80.3795 66.5982 82.1407 68.3594L100.5 86.7188L118.859 68.3594C120.621 66.5982 123.009 65.6087 125.5 65.6087C127.991 65.6087 130.379 66.5982 132.141 68.3594C133.902 70.1206 134.891 72.5093 134.891 75C134.891 77.4907 133.902 79.8794 132.141 81.6406Z" fill="#D82929"/>
</svg>
