<svg width="40" height="40" viewBox="0 0 40 40" fill="none" xmlns="http://www.w3.org/2000/svg">
<path d="M20 28.3334C20.4723 28.3334 20.8684 28.1734 21.1884 27.8534C21.5084 27.5334 21.6678 27.1378 21.6667 26.6667C21.6667 26.1945 21.5067 25.7984 21.1867 25.4784C20.8667 25.1584 20.4712 24.9989 20 25C19.5278 25 19.1317 25.16 18.8117 25.48C18.4917 25.8 18.3323 26.1956 18.3334 26.6667C18.3334 27.1389 18.4934 27.535 18.8134 27.855C19.1334 28.175 19.5289 28.3345 20 28.3334ZM18.3334 21.6667H21.6667V11.6667H18.3334V21.6667ZM20 36.6667C17.6945 36.6667 15.5278 36.2289 13.5 35.3534C11.4723 34.4778 9.70838 33.2906 8.20837 31.7917C6.70837 30.2917 5.52115 28.5278 4.64671 26.5C3.77226 24.4723 3.33449 22.3056 3.33337 20C3.33337 17.6945 3.77115 15.5278 4.64671 13.5C5.52226 11.4723 6.70949 9.70838 8.20837 8.20837C9.70838 6.70837 11.4723 5.52115 13.5 4.64671C15.5278 3.77226 17.6945 3.33449 20 3.33337C22.3056 3.33337 24.4723 3.77115 26.5 4.64671C28.5278 5.52226 30.2917 6.70949 31.7917 8.20837C33.2917 9.70838 34.4795 11.4723 35.355 13.5C36.2306 15.5278 36.6678 17.6945 36.6667 20C36.6667 22.3056 36.2289 24.4723 35.3534 26.5C34.4778 28.5278 33.2906 30.2917 31.7917 31.7917C30.2917 33.2917 28.5278 34.4795 26.5 35.355C24.4723 36.2306 22.3056 36.6678 20 36.6667Z" fill="#FE8963"/>
</svg>
