<svg width="292" height="422" viewBox="0 0 292 422" fill="none" xmlns="http://www.w3.org/2000/svg">
<path fill-rule="evenodd" clip-rule="evenodd" d="M81.4497 50.9932C75.3964 46.4629 70.6608 40.4054 69.6156 32.8148C66.6039 10.9439 99.2272 9.73188 107.7 19.46C116.173 29.1882 121.338 56.9416 113.807 60.3851C110.803 61.7583 103.646 61.1298 95.9349 58.4906L106.435 86.662L80.9691 91.4614L81.4497 50.9932Z" fill="#FFBFC0"/>
<path fill-rule="evenodd" clip-rule="evenodd" d="M96.806 23.1556C93.7422 25.6432 92.0173 29.5476 90.0203 34.6189C89.2418 34.4856 88.4249 34.4858 87.6033 34.6406C84.0871 35.3033 81.8147 38.5481 82.5278 41.8881C82.8898 43.5837 83.9515 44.9779 85.3693 45.853C84.3179 48.1058 83.1074 50.4803 81.6701 52.9659C73.7513 50.273 65.9969 39.536 70.321 26.9452C71.2799 3.1766 107.148 11.0576 112.655 6.0417C115.793 14.0098 112.752 21.4848 96.806 23.1556Z" fill="#191847"/>
<path fill-rule="evenodd" clip-rule="evenodd" d="M98.6244 179.16L177.436 294.559L234.965 393.834L248.758 391.234L146.028 170.226L98.6244 179.16Z" fill="#FFBFC0"/>
<path fill-rule="evenodd" clip-rule="evenodd" d="M88.1372 181.136C96.9761 225.242 101.535 286.006 100.828 288.993C100.357 290.984 75.583 319.841 26.5056 375.565L38.0675 383.432C99.0506 332.093 130.597 303.567 132.707 297.855C135.871 289.287 136.446 215.821 140.007 171.361L88.1372 181.136Z" fill="#FFBFC0"/>
<path fill-rule="evenodd" clip-rule="evenodd" d="M24.5157 372.577C21.5578 374.242 19.58 375.667 18.5824 376.852C17.3691 378.292 15.8532 380.588 14.0347 383.739C15.8082 385.086 31.7468 397.196 61.8505 420.067C66.3533 417.14 67.3962 414.505 64.979 412.163C62.5619 409.82 60.5727 407.852 59.0114 406.258L44.6506 380.036C44.3743 379.531 43.7206 379.332 43.1905 379.59C43.1815 379.594 43.1725 379.599 43.1635 379.604L38.9846 381.784C35.5886 380.99 33.1158 380.005 31.5664 378.828C30.3075 377.872 28.9724 376.072 27.5613 373.428C27.0198 372.414 25.7167 372.001 24.6509 372.507C24.605 372.529 24.5599 372.552 24.5157 372.577Z" fill="#343434"/>
<path fill-rule="evenodd" clip-rule="evenodd" d="M228.274 390.012C227.729 393.245 227.617 395.61 227.936 397.104C228.324 398.922 229.209 401.514 230.591 404.881C232.81 404.463 252.76 400.703 290.438 393.602C290.951 388.425 289.49 385.957 286.057 386.199C282.623 386.442 279.764 386.614 277.481 386.718L247.149 380.181C246.566 380.055 245.987 380.402 245.857 380.955C245.855 380.965 245.853 380.974 245.851 380.984L244.942 385.441C242.134 387.4 239.76 388.563 237.821 388.928C236.245 389.225 233.94 389.031 230.905 388.345C229.741 388.082 228.576 388.764 228.304 389.868C228.292 389.915 228.282 389.963 228.274 390.012Z" fill="#292929"/>
<path fill-rule="evenodd" clip-rule="evenodd" d="M180.643 392.73L244.78 373.609L150.618 169.361L91.8802 180.431L180.643 392.73Z" fill="#292929"/>
<path fill-rule="evenodd" clip-rule="evenodd" d="M36.7447 357.429L90.087 397.689C125.361 342.143 145.228 306.493 149.689 290.739C154.15 274.984 152.62 234.871 145.099 170.401L78.9709 182.864C87.5886 239.205 91.6035 268.779 91.0158 271.587C90.4281 274.396 72.3377 303.009 36.7447 357.429Z" fill="#343434"/>
<path fill-rule="evenodd" clip-rule="evenodd" d="M191.76 148.933L229.074 171.768C238.927 173.71 247.223 176.343 253.961 179.665C255.581 180.903 257.606 183.478 251.203 183.362C244.799 183.245 238.059 183.394 237.308 185.494C236.557 187.593 240.569 189.837 238.965 192.701C237.895 194.611 232.005 190.288 221.293 179.732L185.014 167.799L191.76 148.933ZM33.721 151.686L57.8447 147.229C51.4699 206.828 47.9991 238.058 47.4323 240.92C46.1569 247.358 53.4844 255.416 56.8305 259.857C49.9996 264.443 48.2928 252.55 39.7097 258.493C31.8755 263.918 26.7679 272.035 15.5387 268.101C14.1581 267.617 12.2377 265.179 15.0397 262.462C22.0204 255.694 31.7341 244.32 32.6665 241.003C33.9381 236.48 34.2896 206.708 33.721 151.686Z" fill="#FFBFC0"/>
<path fill-rule="evenodd" clip-rule="evenodd" d="M93.397 73.3055L102.587 69.9705C128.263 117.172 212.589 136.753 221.311 154.564C224.51 161.095 220.02 165.548 223.167 167.128L212.619 178.008C210.032 176.096 206.461 181.159 196.494 179.966C186.526 178.774 106.043 132.543 93.397 73.3055Z" fill="#B9B9B9"/>
<path fill-rule="evenodd" clip-rule="evenodd" d="M110.829 76.9388C123.871 143.379 168.046 152.628 164.682 180.901C161.904 204.249 95.5157 241.296 78.5648 222.118C71.7032 214.355 67.1856 204.253 64.4842 192.854C63.2029 202.244 62.3209 210.286 61.8383 216.98C61.0057 228.529 49.0866 232.586 49.9872 236.804L32.8936 235.637C32.7685 229.699 24.539 228.347 23.8524 215.158C20.7761 156.06 36.539 109.832 71.1411 76.4718L70.3431 70.6674C70.0376 68.4161 71.7069 66.3607 74.0763 66.0708L104.466 62.401C106.837 62.1109 109.012 63.7043 109.323 65.9563C109.323 65.9563 109.324 65.9587 109.32 65.9604L110.829 76.9388Z" fill="#F5F5F5"/>
</svg>
