<svg width="327" height="427" viewBox="0 0 327 427" fill="none" xmlns="http://www.w3.org/2000/svg">
<path fill-rule="evenodd" clip-rule="evenodd" d="M133.549 57.9411C128.035 53.4941 123.813 47.6469 123.111 40.4635C121.088 19.7663 151.745 19.5842 159.339 29.0003C166.932 38.4163 170.76 64.72 163.567 67.7431C160.698 68.9487 154.005 68.1459 146.866 65.4321L155.685 92.2867L131.613 96.0596L133.549 57.9411Z" fill="#FFBFC0"/>
<path fill-rule="evenodd" clip-rule="evenodd" d="M148.98 32.162C146.014 34.4159 144.252 38.0442 142.192 42.7641C141.467 42.6155 140.7 42.5916 139.923 42.7133C136.6 43.2343 134.348 46.225 134.895 49.3932C135.172 51.0016 136.117 52.3466 137.416 53.2129C136.346 55.3048 135.123 57.5066 133.683 59.8065C126.351 57.0359 119.469 46.6904 123.989 34.9535C125.761 12.5848 159.129 21.0666 164.48 16.5022C167.133 24.1028 164.005 31.0569 148.98 32.162Z" fill="#191847"/>
<path fill-rule="evenodd" clip-rule="evenodd" d="M144.961 179.216L214.679 290.275L265.019 385.513L278.057 383.47L189.77 172.193L144.961 179.216Z" fill="#FFBFC0"/>
<path fill-rule="evenodd" clip-rule="evenodd" d="M135.048 180.77C141.723 222.59 143.771 279.982 142.999 282.775C142.483 284.637 118.177 311.1 70.0798 362.164L80.6402 369.917C139.748 323.336 170.397 297.384 172.587 292.064C175.871 284.083 179.106 214.874 184.079 173.085L135.048 180.77Z" fill="#FFBFC0"/>
<path fill-rule="evenodd" clip-rule="evenodd" d="M68.2885 359.284C65.4566 360.758 63.5522 362.037 62.5755 363.12C61.3876 364.438 59.8863 366.55 58.0716 369.458C59.6882 370.781 74.2176 382.672 101.66 405.13C105.984 402.517 107.054 400.07 104.868 397.791C102.682 395.511 100.884 393.597 99.4753 392.049L86.9147 366.93C86.6731 366.447 86.0669 366.239 85.5608 366.465C85.5521 366.469 85.5435 366.473 85.535 366.477L81.54 368.398C78.3823 367.545 76.0972 366.541 74.6848 365.385C73.5372 364.446 72.3474 362.711 71.1155 360.18C70.6427 359.208 69.4349 358.78 68.4177 359.222C68.3739 359.241 68.3308 359.262 68.2885 359.284Z" fill="#343434"/>
<path fill-rule="evenodd" clip-rule="evenodd" d="M258.881 381.714C258.251 384.746 258.058 386.97 258.303 388.388C258.6 390.112 259.336 392.581 260.509 395.794C262.607 395.465 281.465 392.509 317.082 386.927C317.753 382.064 316.472 379.696 313.241 379.823C310.01 379.95 307.321 380.029 305.175 380.059L276.953 373.007C276.41 372.871 275.855 373.181 275.712 373.698C275.71 373.707 275.707 373.716 275.705 373.725L274.689 377.898C271.982 379.662 269.712 380.687 267.879 380.975C266.389 381.208 264.233 380.957 261.411 380.221C260.328 379.939 259.21 380.547 258.914 381.58C258.901 381.624 258.89 381.669 258.881 381.714Z" fill="#292929"/>
<path fill-rule="evenodd" clip-rule="evenodd" d="M214.086 382.874L274.971 366.745L194.11 171.513L138.586 180.215L214.086 382.874Z" fill="#292929"/>
<path fill-rule="evenodd" clip-rule="evenodd" d="M80.3528 345.376L128.93 384.882C164.067 333.58 184.018 300.572 188.782 285.858C193.547 271.144 193.583 233.302 188.892 172.331L126.383 182.128C132.402 235.471 135.084 263.457 134.429 266.086C133.775 268.715 115.749 295.145 80.3528 345.376Z" fill="#343434"/>
<path fill-rule="evenodd" clip-rule="evenodd" d="M233.466 153.475L267.641 176.09C276.816 178.21 284.504 180.935 290.704 184.263C292.179 185.477 293.985 187.964 287.981 187.666C281.976 187.367 275.646 187.31 274.864 189.266C274.083 191.222 277.765 193.454 276.154 196.106C275.081 197.874 269.712 193.627 260.048 183.365L226.442 171.053L233.466 153.475ZM85.067 151.418L107.867 147.928C99.6981 203.9 95.2951 233.226 94.6582 235.905C93.2251 241.934 99.8052 249.743 102.782 254.027C96.204 258.147 95.0388 246.89 86.7667 252.238C79.2163 257.119 74.1256 264.617 63.7329 260.579C62.4552 260.083 60.7427 257.729 63.4717 255.251C70.2705 249.079 79.8028 238.648 80.7995 235.55C82.1587 231.325 83.5812 203.281 85.067 151.418Z" fill="#FFBFC0"/>
<path fill-rule="evenodd" clip-rule="evenodd" d="M143.941 79.3172L152.687 76.4452C175.047 121.678 253.457 142.611 260.988 159.65C263.75 165.899 259.373 169.962 262.269 171.544L251.972 181.485C249.614 179.607 246.078 184.273 236.768 182.856C227.459 181.439 153.633 135.508 143.941 79.3172Z" fill="#B9B9B9"/>
<path fill-rule="evenodd" clip-rule="evenodd" d="M160.165 83.2539C169.965 146.243 211.078 156.259 206.883 182.801C203.42 204.72 139.764 237.675 124.561 219.105C118.408 211.588 114.539 201.936 112.423 191.116C110.876 199.926 109.753 207.478 109.055 213.772C107.85 224.629 96.5161 228.101 97.2064 232.103L81.2094 230.5C81.3098 224.901 73.6372 223.385 73.477 210.936C72.7593 155.159 89.2471 112.062 122.941 81.6459L122.405 76.153C122.201 74.0226 123.843 72.135 126.077 71.9316L154.728 69.3678C156.963 69.1642 158.946 70.7297 159.155 72.8609C159.155 72.8609 159.156 72.8632 159.152 72.8647L160.165 83.2539Z" fill="#F5F5F5"/>
</svg>
