<svg width="304" height="424" viewBox="0 0 304 424" fill="none" xmlns="http://www.w3.org/2000/svg">
<g filter="url(#filter0_d_223_1573)">
<path fill-rule="evenodd" clip-rule="evenodd" d="M100.549 41.9412C95.0349 37.4942 90.8135 31.6469 90.1113 24.4636C88.0879 3.76633 118.745 3.58428 126.339 13.0003C133.932 22.4164 137.76 48.7201 130.567 51.7432C127.698 52.9488 121.005 52.1459 113.866 49.4321L122.685 76.2867L98.6126 80.0597L100.549 41.9412Z" fill="#FFBFC0"/>
<path fill-rule="evenodd" clip-rule="evenodd" d="M115.98 16.1621C113.014 18.4159 111.252 22.0442 109.192 26.7641C108.467 26.6156 107.7 26.5917 106.923 26.7134C103.6 27.2343 101.348 30.225 101.895 33.3933C102.172 35.0017 103.117 36.3466 104.416 37.213C103.346 39.3048 102.123 41.5066 100.683 43.8065C93.3515 41.0359 86.4692 30.6905 90.9888 18.9536C92.7609 -3.41509 126.129 5.06661 131.48 0.502215C134.133 8.10286 131.005 15.0569 115.98 16.1621Z" fill="#191847"/>
<path fill-rule="evenodd" clip-rule="evenodd" d="M111.961 163.216L181.679 274.275L232.019 369.513L245.057 367.47L156.77 156.193L111.961 163.216Z" fill="#FFBFC0"/>
<path fill-rule="evenodd" clip-rule="evenodd" d="M102.048 164.77C108.723 206.59 110.771 263.982 109.999 266.775C109.483 268.637 85.1772 295.101 37.0798 346.165L47.6402 353.917C106.748 307.336 137.397 281.384 139.587 276.064C142.871 268.083 146.106 198.874 151.079 157.085L102.048 164.77Z" fill="#FFBFC0"/>
<path fill-rule="evenodd" clip-rule="evenodd" d="M35.2885 343.284C32.4566 344.758 30.5522 346.037 29.5755 347.12C28.3876 348.438 26.8863 350.551 25.0716 353.458C26.6882 354.781 41.2176 366.672 68.6596 389.13C72.9843 386.517 74.0537 384.07 71.8678 381.791C69.6819 379.511 67.8844 377.597 66.4753 376.049L53.9147 350.93C53.6731 350.447 53.0669 350.239 52.5608 350.465C52.5521 350.469 52.5435 350.473 52.535 350.477L48.54 352.398C45.3823 351.545 43.0972 350.541 41.6848 349.385C40.5372 348.446 39.3474 346.711 38.1155 344.18C37.6427 343.208 36.4349 342.78 35.4177 343.222C35.3739 343.241 35.3308 343.262 35.2885 343.284Z" fill="#343434"/>
<path fill-rule="evenodd" clip-rule="evenodd" d="M225.881 365.715C225.251 368.746 225.058 370.97 225.303 372.388C225.6 374.112 226.336 376.581 227.509 379.794C229.607 379.465 248.465 376.51 284.082 370.927C284.753 366.064 283.472 363.696 280.241 363.823C277.01 363.95 274.321 364.029 272.175 364.059L243.953 357.007C243.41 356.871 242.855 357.181 242.712 357.698C242.71 357.707 242.707 357.716 242.705 357.725L241.689 361.898C238.982 363.662 236.712 364.687 234.879 364.975C233.389 365.208 231.233 364.957 228.411 364.222C227.328 363.939 226.21 364.547 225.914 365.58C225.901 365.624 225.89 365.669 225.881 365.715Z" fill="#292929"/>
<path fill-rule="evenodd" clip-rule="evenodd" d="M181.086 366.874L241.971 350.745L161.11 155.513L105.586 164.215L181.086 366.874Z" fill="#292929"/>
<path fill-rule="evenodd" clip-rule="evenodd" d="M47.3528 329.376L95.9295 368.882C131.067 317.58 151.018 284.572 155.782 269.858C160.547 255.144 160.583 217.302 155.892 156.331L93.3828 166.128C99.4015 219.471 102.084 247.457 101.429 250.086C100.775 252.715 82.7491 279.145 47.3528 329.376Z" fill="#343434"/>
<path fill-rule="evenodd" clip-rule="evenodd" d="M200.466 137.475L234.641 160.09C243.816 162.21 251.504 164.935 257.704 168.263C259.179 169.477 260.985 171.964 254.981 171.666C248.976 171.367 242.646 171.31 241.864 173.266C241.083 175.222 244.765 177.454 243.154 180.106C242.081 181.874 236.712 177.627 227.048 167.365L193.442 155.054L200.466 137.475ZM52.067 135.419L74.8673 131.928C66.6981 187.9 62.2951 217.226 61.6582 219.905C60.2251 225.934 66.8052 233.743 69.7821 238.027C63.204 242.147 62.0388 230.89 53.7667 236.238C46.2163 241.119 41.1256 248.617 30.7329 244.58C29.4552 244.083 27.7427 241.729 30.4717 239.251C37.2705 233.079 46.8028 222.648 47.7995 219.55C49.1587 215.325 50.5812 187.281 52.067 135.419Z" fill="#FFBFC0"/>
<path fill-rule="evenodd" clip-rule="evenodd" d="M110.941 63.3172L119.687 60.4452C142.047 105.679 220.457 126.611 227.988 143.65C230.75 149.899 226.373 153.962 229.269 155.544L218.972 165.485C216.614 163.607 213.078 168.273 203.768 166.856C194.459 165.439 120.633 119.508 110.941 63.3172Z" fill="#B9B9B9"/>
<path fill-rule="evenodd" clip-rule="evenodd" d="M127.165 67.2539C136.965 130.243 178.078 140.259 173.883 166.801C170.42 188.72 106.764 221.675 91.5615 203.105C85.4078 195.588 81.5394 185.936 79.4228 175.116C77.8759 183.926 76.7531 191.478 76.0546 197.772C74.8495 208.629 63.5161 212.101 64.2064 216.103L48.2094 214.5C48.3098 208.901 40.6372 207.385 40.477 194.936C39.7593 139.159 56.2471 96.0624 89.9407 65.646L89.405 60.153C89.2009 58.0227 90.8428 56.135 93.0768 55.9316L121.728 53.3678C123.963 53.1643 125.946 54.7298 126.155 56.8609C126.155 56.8609 126.156 56.8632 126.152 56.8647L127.165 67.2539Z" fill="#F5F5F5"/>
</g>
<defs>
<filter id="filter0_d_223_1573" x="0" y="0.502197" width="312.177" height="441.508" filterUnits="userSpaceOnUse" color-interpolation-filters="sRGB">
<feFlood flood-opacity="0" result="BackgroundImageFix"/>
<feColorMatrix in="SourceAlpha" type="matrix" values="0 0 0 0 0 0 0 0 0 0 0 0 0 0 0 0 0 0 127 0" result="hardAlpha"/>
<feOffset dx="15" dy="30"/>
<feGaussianBlur stdDeviation="2"/>
<feComposite in2="hardAlpha" operator="out"/>
<feColorMatrix type="matrix" values="0 0 0 0 0 0 0 0 0 0 0 0 0 0 0 0 0 0 0.1 0"/>
<feBlend mode="normal" in2="BackgroundImageFix" result="effect1_dropShadow_223_1573"/>
<feBlend mode="normal" in="SourceGraphic" in2="effect1_dropShadow_223_1573" result="shape"/>
</filter>
</defs>
</svg>
