<svg width="38" height="38" viewBox="0 0 38 38" fill="none" xmlns="http://www.w3.org/2000/svg">
<path d="M37.482 19.3461C37.482 17.8302 37.3561 16.724 37.0836 15.5769H19.3682V22.4188H29.7668C29.5572 24.1191 28.4251 26.6797 25.9092 28.4004L25.8739 28.6294L31.4753 32.8693L31.8633 32.9072C35.4273 29.691 37.482 24.9589 37.482 19.3461Z" fill="#4285F4"/>
<path d="M19.3687 37.3729C24.4631 37.3729 28.7399 35.734 31.8638 32.9072L25.9097 28.4004C24.3164 29.4861 22.1779 30.244 19.3687 30.244C14.379 30.244 10.1441 27.028 8.63446 22.5828L8.41318 22.6011L2.58886 27.0054L2.5127 27.2123C5.61549 33.2348 11.9889 37.3729 19.3687 37.3729Z" fill="#34A853"/>
<path d="M8.63436 22.5828C8.23603 21.4357 8.00551 20.2065 8.00551 18.9365C8.00551 17.6663 8.23603 16.4373 8.61341 15.2901L8.60285 15.0458L2.70555 10.5708L2.5126 10.6605C1.23379 13.1597 0.5 15.9662 0.5 18.9365C0.5 21.9068 1.23379 24.7131 2.5126 27.2123L8.63436 22.5828Z" fill="#FBBC05"/>
<path d="M19.3687 7.62871C22.9117 7.62871 25.3017 9.12411 26.6644 10.3738L31.9896 5.29348C28.7191 2.32317 24.4631 0.5 19.3687 0.5C11.9889 0.5 5.61549 4.63793 2.5127 10.6605L8.6135 15.2901C10.1441 10.8449 14.379 7.62871 19.3687 7.62871Z" fill="#EB4335"/>
</svg>
