<svg width="138" height="138" viewBox="0 0 138 138" fill="none" xmlns="http://www.w3.org/2000/svg">
<path d="M110.708 69C107.691 69 104.798 67.8016 102.665 65.6683C100.532 63.5351 99.3333 60.6418 99.3333 57.625C99.3333 54.6082 100.532 51.7149 102.665 49.5817C104.798 47.4484 107.691 46.25 110.708 46.25C113.725 46.25 116.618 47.4484 118.752 49.5817C120.885 51.7149 122.083 54.6082 122.083 57.625C122.083 60.6418 120.885 63.5351 118.752 65.6683C116.618 67.8016 113.725 69 110.708 69ZM87.9583 38.6667C84.9415 38.6667 82.0482 37.4682 79.915 35.335C77.7818 33.2018 76.5833 30.3085 76.5833 27.2917C76.5833 24.2748 77.7818 21.3816 79.915 19.2483C82.0482 17.1151 84.9415 15.9167 87.9583 15.9167C90.9752 15.9167 93.8685 17.1151 96.0017 19.2483C98.1349 21.3816 99.3333 24.2748 99.3333 27.2917C99.3333 30.3085 98.1349 33.2018 96.0017 35.335C93.8685 37.4682 90.9752 38.6667 87.9583 38.6667ZM50.0417 38.6667C47.0248 38.6667 44.1316 37.4682 41.9983 35.335C39.8651 33.2018 38.6667 30.3085 38.6667 27.2917C38.6667 24.2748 39.8651 21.3816 41.9983 19.2483C44.1316 17.1151 47.0248 15.9167 50.0417 15.9167C53.0585 15.9167 55.9518 17.1151 58.085 19.2483C60.2182 21.3816 61.4167 24.2748 61.4167 27.2917C61.4167 30.3085 60.2182 33.2018 58.085 35.335C55.9518 37.4682 53.0585 38.6667 50.0417 38.6667ZM27.2917 69C24.2748 69 21.3816 67.8016 19.2483 65.6683C17.1151 63.5351 15.9167 60.6418 15.9167 57.625C15.9167 54.6082 17.1151 51.7149 19.2483 49.5817C21.3816 47.4484 24.2748 46.25 27.2917 46.25C30.3085 46.25 33.2018 47.4484 35.335 49.5817C37.4682 51.7149 38.6667 54.6082 38.6667 57.625C38.6667 60.6418 37.4682 63.5351 35.335 65.6683C33.2018 67.8016 30.3085 69 27.2917 69ZM69 0.75C50.899 0.75 33.5393 7.9406 20.74 20.74C7.9406 33.5393 0.75 50.899 0.75 69C0.75 87.101 7.9406 104.461 20.74 117.26C33.5393 130.059 50.899 137.25 69 137.25C72.0168 137.25 74.9101 136.052 77.0433 133.918C79.1766 131.785 80.375 128.892 80.375 125.875C80.375 122.918 79.2375 120.263 77.4175 118.292C75.6733 116.244 74.5358 113.59 74.5358 110.708C74.5358 107.691 75.7343 104.798 77.8675 102.665C80.0007 100.532 82.894 99.3333 85.9108 99.3333H99.3333C109.389 99.3333 119.034 95.3386 126.144 88.2278C133.255 81.117 137.25 71.4728 137.25 61.4167C137.25 27.8983 106.689 0.75 69 0.75Z" fill="#D62B70"/>
</svg>
