<svg width="44" height="44" viewBox="0 0 44 44" fill="none" xmlns="http://www.w3.org/2000/svg">
<rect width="44" height="44" rx="22" fill="#D62B70"/>
<path d="M22.0003 14.2083C24.6052 14.1997 27.1596 14.9263 29.37 16.3046C31.5803 17.6829 33.3569 19.6571 34.4953 22C32.1578 26.7742 27.3837 29.7917 22.0003 29.7917C16.617 29.7917 11.8428 26.7742 9.50533 22C10.6438 19.6571 12.4203 17.6829 14.6307 16.3046C16.841 14.9263 19.3955 14.1997 22.0003 14.2083ZM22.0003 11.375C14.917 11.375 8.86783 15.7808 6.41699 22C8.86783 28.2192 14.917 32.625 22.0003 32.625C29.0837 32.625 35.1328 28.2192 37.5837 22C35.1328 15.7808 29.0837 11.375 22.0003 11.375ZM22.0003 18.4583C22.9396 18.4583 23.8405 18.8315 24.5047 19.4957C25.1689 20.1599 25.542 21.0607 25.542 22C25.542 22.9393 25.1689 23.8401 24.5047 24.5043C23.8405 25.1685 22.9396 25.5417 22.0003 25.5417C21.061 25.5417 20.1602 25.1685 19.496 24.5043C18.8318 23.8401 18.4587 22.9393 18.4587 22C18.4587 21.0607 18.8318 20.1599 19.496 19.4957C20.1602 18.8315 21.061 18.4583 22.0003 18.4583ZM22.0003 15.625C18.487 15.625 15.6253 18.4867 15.6253 22C15.6253 25.5133 18.487 28.375 22.0003 28.375C25.5137 28.375 28.3753 25.5133 28.3753 22C28.3753 18.4867 25.5137 15.625 22.0003 15.625Z" fill="white"/>
</svg>
