<svg width="156" height="156" viewBox="0 0 156 156" fill="none" xmlns="http://www.w3.org/2000/svg">
<path d="M39 143C35.425 143 32.3635 141.728 29.8155 139.184C27.2675 136.641 25.9957 133.579 26 130V65C26 61.425 27.274 58.3635 29.822 55.8155C32.37 53.2675 35.4293 51.9957 39 52H97.5V39C97.5 33.5833 95.6042 28.9792 91.8125 25.1875C88.0208 21.3958 83.4167 19.5 78 19.5C73.5583 19.5 69.6302 20.8282 66.2155 23.4845C62.8008 26.1408 60.502 29.471 59.319 33.475C58.7773 35.1 57.9367 36.4282 56.797 37.4595C55.6573 38.4908 54.3313 39.0043 52.819 39C50.6523 39 48.919 38.2677 47.619 36.803C46.319 35.3383 45.8857 33.6873 46.319 31.85C47.9397 24.5917 51.675 18.551 57.525 13.728C63.375 8.90501 70.2 6.49567 78 6.50001C86.9917 6.50001 94.6573 9.66984 100.997 16.0095C107.337 22.3492 110.504 30.0127 110.5 39V52H117C120.575 52 123.637 53.274 126.185 55.822C128.733 58.37 130.004 61.4293 130 65V130C130 133.575 128.726 136.637 126.178 139.184C123.63 141.732 120.571 143.004 117 143H39ZM39 130H117V65H39V130ZM78 110.5C81.575 110.5 84.6365 109.228 87.1845 106.685C89.7325 104.141 91.0043 101.079 91 97.5C91 93.925 89.726 90.8657 87.178 88.322C84.63 85.7783 81.5707 84.5043 78 84.5C74.425 84.5 71.3635 85.774 68.8155 88.322C66.2675 90.87 64.9957 93.9293 65 97.5C65 101.075 66.274 104.136 68.822 106.685C71.37 109.232 74.4293 110.504 78 110.5Z" fill="#D62B70"/>
</svg>
