<svg width="427" height="558" viewBox="0 0 427 558" fill="none" xmlns="http://www.w3.org/2000/svg">
<path fill-rule="evenodd" clip-rule="evenodd" d="M173.792 75.0263C166.57 69.2015 161.04 61.5424 160.121 52.1333C157.47 25.0231 197.626 24.7846 207.573 37.1182C217.519 49.4518 222.533 83.9057 213.111 87.8655C209.353 89.4446 200.587 88.393 191.236 84.8383L202.788 120.014L171.256 124.956L173.792 75.0263Z" fill="#FFBFC0"/>
<path fill-rule="evenodd" clip-rule="evenodd" d="M194.005 41.2596C190.119 44.2118 187.812 48.9643 185.113 55.1467C184.163 54.9521 183.159 54.9208 182.141 55.0803C177.788 55.7626 174.839 59.68 175.555 63.8299C175.918 65.9367 177.156 67.6983 178.857 68.8331C177.456 71.5731 175.854 74.4572 173.968 77.4697C164.364 73.8406 155.35 60.2896 161.27 44.9161C163.591 15.6165 207.298 26.7262 214.307 20.7476C217.782 30.7033 213.684 39.8121 194.005 41.2596Z" fill="#191847"/>
<path fill-rule="evenodd" clip-rule="evenodd" d="M188.74 233.878L280.06 379.348L345.998 504.096L363.076 501.419L247.433 224.679L188.74 233.878Z" fill="#FFBFC0"/>
<path fill-rule="evenodd" clip-rule="evenodd" d="M175.756 235.913C184.5 290.692 187.182 365.866 186.17 369.525C185.495 371.964 153.658 406.627 90.6576 473.513L104.49 483.668C181.913 422.653 222.058 388.661 224.926 381.692C229.228 371.238 233.465 280.585 239.98 225.847L175.756 235.913Z" fill="#FFBFC0"/>
<path fill-rule="evenodd" clip-rule="evenodd" d="M88.3108 469.74C84.6013 471.671 82.1069 473.346 80.8276 474.765C79.2716 476.491 77.3051 479.258 74.9281 483.066C77.0457 484.799 96.0769 500.374 132.022 529.791C137.687 526.368 139.087 523.164 136.224 520.178C133.361 517.192 131.006 514.685 129.161 512.657L112.708 479.756C112.392 479.122 111.598 478.85 110.935 479.146C110.923 479.151 110.912 479.156 110.901 479.162L105.668 481.678C101.532 480.561 98.539 479.246 96.6889 477.732C95.1857 476.502 93.6273 474.229 92.0137 470.913C91.3944 469.641 89.8124 469.079 88.48 469.659C88.4226 469.684 88.3661 469.711 88.3108 469.74Z" fill="#343434"/>
<path fill-rule="evenodd" clip-rule="evenodd" d="M337.957 499.12C337.133 503.091 336.881 506.004 337.201 507.861C337.59 510.12 338.554 513.353 340.09 517.562C342.839 517.131 367.539 513.26 414.192 505.948C415.071 499.578 413.394 496.476 409.162 496.642C404.93 496.809 401.408 496.912 398.596 496.952L361.63 487.714C360.919 487.537 360.191 487.942 360.004 488.62C360.001 488.632 359.998 488.644 359.995 488.655L358.664 494.121C355.118 496.431 352.145 497.775 349.743 498.151C347.792 498.457 344.969 498.128 341.272 497.165C339.853 496.795 338.389 497.592 338.001 498.944C337.984 499.002 337.97 499.061 337.957 499.12Z" fill="#292929"/>
<path fill-rule="evenodd" clip-rule="evenodd" d="M279.284 500.639L359.034 479.512L253.118 223.788L180.391 235.187L279.284 500.639Z" fill="#292929"/>
<path fill-rule="evenodd" clip-rule="evenodd" d="M104.113 451.522L167.742 503.269C213.767 436.072 239.9 392.836 246.14 373.563C252.38 354.29 252.428 304.722 246.284 224.859L164.406 237.692C172.289 307.564 175.802 344.221 174.945 347.664C174.088 351.108 150.477 385.727 104.113 451.522Z" fill="#343434"/>
<path fill-rule="evenodd" clip-rule="evenodd" d="M304.667 200.161L349.432 229.783C361.45 232.56 371.519 236.129 379.641 240.489C381.572 242.079 383.939 245.336 376.074 244.946C368.208 244.555 359.916 244.479 358.893 247.041C357.869 249.604 362.692 252.528 360.583 256.002C359.176 258.317 352.144 252.754 339.486 239.313L295.468 223.186L304.667 200.161ZM110.287 197.467L140.152 192.896C129.452 266.21 123.685 304.622 122.85 308.132C120.973 316.029 129.592 326.257 133.491 331.869C124.875 337.265 123.349 322.52 112.514 329.525C102.624 335.919 95.9558 345.74 82.343 340.452C80.6694 339.802 78.4263 336.717 82.0008 333.472C90.9062 325.388 103.392 311.724 104.698 307.666C106.478 302.133 108.341 265.4 110.287 197.467Z" fill="#FFBFC0"/>
<path fill-rule="evenodd" clip-rule="evenodd" d="M187.404 103.026L198.86 99.2639C228.149 158.513 330.853 185.931 340.718 208.25C344.335 216.434 338.603 221.757 342.396 223.828L328.908 236.851C325.819 234.391 321.187 240.502 308.994 238.646C296.8 236.79 200.1 176.627 187.404 103.026Z" fill="#B9B9B9"/>
<path fill-rule="evenodd" clip-rule="evenodd" d="M208.655 108.182C221.491 190.689 275.343 203.808 269.849 238.574C265.312 267.284 181.932 310.45 162.019 286.126C153.959 276.28 148.892 263.638 146.12 249.465C144.093 261.005 142.623 270.897 141.708 279.141C140.129 293.362 125.284 297.91 126.188 303.151L105.235 301.052C105.366 293.718 95.3164 291.732 95.1066 275.426C94.1664 202.367 115.763 145.917 159.896 106.076L159.195 98.881C158.927 96.0906 161.078 93.618 164.004 93.3516L201.532 89.9934C204.461 89.7268 207.057 91.7773 207.332 94.5689C207.332 94.5689 207.333 94.5719 207.328 94.5738L208.655 108.182Z" fill="#F5F5F5"/>
</svg>
