<svg width="201" height="200" viewBox="0 0 201 200" fill="none" xmlns="http://www.w3.org/2000/svg">
<path d="M37.7504 175H163.25C176.084 175 184.084 161.084 177.667 150L114.917 41.5835C108.5 30.5002 92.5004 30.5002 86.0837 41.5835L23.3337 150C16.917 161.084 24.917 175 37.7504 175ZM100.5 116.667C95.917 116.667 92.167 112.917 92.167 108.334V91.6668C92.167 87.0835 95.917 83.3335 100.5 83.3335C105.084 83.3335 108.834 87.0835 108.834 91.6668V108.334C108.834 112.917 105.084 116.667 100.5 116.667ZM108.834 150H92.167V133.334H108.834V150Z" fill="#D62B70"/>
</svg>
