<svg width="74" height="78" viewBox="0 0 74 78" fill="none" xmlns="http://www.w3.org/2000/svg">
<g filter="url(#filter0_d_923_4876)">
<path d="M53.1222 47.9222C52.0508 46.967 51.1128 45.872 50.3334 44.6666C49.4825 43.0028 48.9725 41.1858 48.8334 39.3222V33.8333C48.8407 30.9062 47.7789 28.0771 45.8475 25.8777C43.9161 23.6782 41.248 22.2598 38.3445 21.8888V20.4555C38.3445 20.0621 38.1882 19.6848 37.91 19.4066C37.6318 19.1284 37.2545 18.9722 36.8611 18.9722C36.4677 18.9722 36.0904 19.1284 35.8123 19.4066C35.5341 19.6848 35.3778 20.0621 35.3778 20.4555V21.9111C32.5003 22.3088 29.8644 23.7358 27.9584 25.9278C26.0523 28.1199 25.0053 30.9284 25.0111 33.8333V39.3222C24.872 41.1858 24.362 43.0028 23.5111 44.6666C22.7455 45.8692 21.8225 46.9641 20.7667 47.9222C20.6482 48.0263 20.5532 48.1545 20.488 48.2981C20.4229 48.4418 20.3891 48.5977 20.3889 48.7555V50.2666C20.3889 50.5613 20.506 50.8439 20.7144 51.0523C20.9227 51.2607 21.2053 51.3777 21.5 51.3777H52.3889C52.6836 51.3777 52.9662 51.2607 53.1746 51.0523C53.383 50.8439 53.5 50.5613 53.5 50.2666V48.7555C53.4998 48.5977 53.466 48.4418 53.4009 48.2981C53.3358 48.1545 53.2408 48.0263 53.1222 47.9222ZM22.7 49.1555C23.7338 48.1568 24.644 47.0377 25.4111 45.8222C26.4829 43.8127 27.1083 41.5955 27.2445 39.3222V33.8333C27.2004 32.5311 27.4188 31.2334 27.8867 30.0174C28.3547 28.8013 29.0625 27.6919 29.9681 26.7552C30.8737 25.8184 31.9585 25.0735 33.158 24.5647C34.3575 24.0559 35.6471 23.7937 36.95 23.7937C38.253 23.7937 39.5426 24.0559 40.742 24.5647C41.9415 25.0735 43.0264 25.8184 43.932 26.7552C44.8376 27.6919 45.5454 28.8013 46.0133 30.0174C46.4812 31.2334 46.6997 32.5311 46.6556 33.8333V39.3222C46.7918 41.5955 47.4171 43.8127 48.4889 45.8222C49.256 47.0377 50.1662 48.1568 51.2 49.1555H22.7Z" fill="black"/>
<path d="M37 55.089C37.6999 55.0729 38.3716 54.8097 38.8962 54.3461C39.4208 53.8825 39.7646 53.2483 39.8667 52.5557H34.0222C34.1272 53.2671 34.487 53.9162 35.0348 54.3822C35.5825 54.8482 36.2809 55.0994 37 55.089V55.089Z" fill="black"/>
</g>
<defs>
<filter id="filter0_d_923_4876" x="-3" y="-1" width="80" height="80" filterUnits="userSpaceOnUse" color-interpolation-filters="sRGB">
<feFlood flood-opacity="0" result="BackgroundImageFix"/>
<feColorMatrix in="SourceAlpha" type="matrix" values="0 0 0 0 0 0 0 0 0 0 0 0 0 0 0 0 0 0 127 0" result="hardAlpha"/>
<feOffset dy="2"/>
<feGaussianBlur stdDeviation="10"/>
<feComposite in2="hardAlpha" operator="out"/>
<feColorMatrix type="matrix" values="0 0 0 0 0 0 0 0 0 0 0 0 0 0 0 0 0 0 0.25 0"/>
<feBlend mode="normal" in2="BackgroundImageFix" result="effect1_dropShadow_923_4876"/>
<feBlend mode="normal" in="SourceGraphic" in2="effect1_dropShadow_923_4876" result="shape"/>
</filter>
</defs>
</svg>
