<svg width="52" height="52" viewBox="0 0 52 52" fill="none" xmlns="http://www.w3.org/2000/svg">
<path d="M41.1667 36.8334V25.5667C40.0833 25.7834 39 26 37.9167 26H36.8333V39H15.1667V23.8334C15.1667 17.7667 19.9333 13 26 13C26.2167 10.1834 27.5167 7.80004 29.25 5.85004C28.6 4.98337 27.3 4.33337 26 4.33337C23.6167 4.33337 21.6667 6.28337 21.6667 8.66671V9.31671C15.1667 11.2667 10.8333 17.1167 10.8333 23.8334V36.8334L6.5 41.1667V43.3334H45.5V41.1667L41.1667 36.8334ZM21.6667 45.5C21.6667 47.8834 23.6167 49.8334 26 49.8334C28.3833 49.8334 30.3333 47.8834 30.3333 45.5H21.6667ZM45.5 14.0834C45.5 18.2 42.0333 21.6667 37.9167 21.6667C33.8 21.6667 30.3333 18.2 30.3333 14.0834C30.3333 9.96671 33.8 6.50004 37.9167 6.50004C42.0333 6.50004 45.5 9.96671 45.5 14.0834Z" fill="#E165AB"/>
</svg>
