<svg width="40" height="40" viewBox="0 0 40 40" fill="none" xmlns="http://www.w3.org/2000/svg">
<path d="M16.6667 20C16.6667 20.884 17.0179 21.7319 17.6431 22.357C18.2682 22.9821 19.116 23.3333 20.0001 23.3333C20.8841 23.3333 21.732 22.9821 22.3571 22.357C22.9822 21.7319 23.3334 20.884 23.3334 20C23.3334 19.1159 22.9822 18.2681 22.3571 17.6429C21.732 17.0178 20.8841 16.6666 20.0001 16.6666C19.116 16.6666 18.2682 17.0178 17.6431 17.6429C17.0179 18.2681 16.6667 19.1159 16.6667 20ZM16.6667 9.99996C16.6667 10.884 17.0179 11.7319 17.6431 12.357C18.2682 12.9821 19.116 13.3333 20.0001 13.3333C20.8841 13.3333 21.732 12.9821 22.3571 12.357C22.9822 11.7319 23.3334 10.884 23.3334 9.99996C23.3334 9.1159 22.9822 8.26806 22.3571 7.64294C21.732 7.01782 20.8841 6.66663 20.0001 6.66663C19.116 6.66663 18.2682 7.01782 17.6431 7.64294C17.0179 8.26806 16.6667 9.1159 16.6667 9.99996ZM16.6667 30C16.6667 30.884 17.0179 31.7319 17.6431 32.357C18.2682 32.9821 19.116 33.3333 20.0001 33.3333C20.8841 33.3333 21.732 32.9821 22.3571 32.357C22.9822 31.7319 23.3334 30.884 23.3334 30C23.3334 29.1159 22.9822 28.2681 22.3571 27.6429C21.732 27.0178 20.8841 26.6666 20.0001 26.6666C19.116 26.6666 18.2682 27.0178 17.6431 27.6429C17.0179 28.2681 16.6667 29.1159 16.6667 30Z" fill="#151515"/>
</svg>
