<svg width="50" height="50" viewBox="0 0 50 50" fill="none" xmlns="http://www.w3.org/2000/svg">
<path d="M16.4063 12.5C16.4063 12.2928 16.4886 12.0941 16.6351 11.9476C16.7816 11.8011 16.9803 11.7188 17.1875 11.7188H42.1875C42.3947 11.7188 42.5934 11.8011 42.7399 11.9476C42.8864 12.0941 42.9688 12.2928 42.9688 12.5C42.9688 12.7072 42.8864 12.9059 42.7399 13.0524C42.5934 13.1989 42.3947 13.2812 42.1875 13.2812H17.1875C16.9803 13.2812 16.7816 13.1989 16.6351 13.0524C16.4886 12.9059 16.4063 12.7072 16.4063 12.5ZM42.1875 24.2188H17.1875C16.9803 24.2188 16.7816 24.3011 16.6351 24.4476C16.4886 24.5941 16.4063 24.7928 16.4063 25C16.4063 25.2072 16.4886 25.4059 16.6351 25.5524C16.7816 25.6989 16.9803 25.7812 17.1875 25.7812H42.1875C42.3947 25.7812 42.5934 25.6989 42.7399 25.5524C42.8864 25.4059 42.9688 25.2072 42.9688 25C42.9688 24.7928 42.8864 24.5941 42.7399 24.4476C42.5934 24.3011 42.3947 24.2188 42.1875 24.2188ZM42.1875 36.7188H17.1875C16.9803 36.7188 16.7816 36.8011 16.6351 36.9476C16.4886 37.0941 16.4063 37.2928 16.4063 37.5C16.4063 37.7072 16.4886 37.9059 16.6351 38.0524C16.7816 38.1989 16.9803 38.2812 17.1875 38.2812H42.1875C42.3947 38.2812 42.5934 38.1989 42.7399 38.0524C42.8864 37.9059 42.9688 37.7072 42.9688 37.5C42.9688 37.2928 42.8864 37.0941 42.7399 36.9476C42.5934 36.8011 42.3947 36.7188 42.1875 36.7188ZM8.59375 23.4375C8.28472 23.4375 7.98262 23.5291 7.72567 23.7008C7.46872 23.8725 7.26845 24.1165 7.15019 24.4021C7.03193 24.6876 7.00098 25.0017 7.06127 25.3048C7.12156 25.6079 7.27038 25.8863 7.4889 26.1049C7.70742 26.3234 7.98583 26.4722 8.28892 26.5325C8.59202 26.5928 8.90618 26.5618 9.19169 26.4436C9.4772 26.3253 9.72123 26.125 9.89292 25.8681C10.0646 25.6111 10.1563 25.309 10.1563 25C10.1563 24.5856 9.99163 24.1882 9.6986 23.8951C9.40558 23.6021 9.00815 23.4375 8.59375 23.4375ZM8.59375 10.9375C8.28472 10.9375 7.98262 11.0291 7.72567 11.2008C7.46872 11.3725 7.26845 11.6165 7.15019 11.9021C7.03193 12.1876 7.00098 12.5017 7.06127 12.8048C7.12156 13.1079 7.27038 13.3863 7.4889 13.6049C7.70742 13.8234 7.98583 13.9722 8.28892 14.0325C8.59202 14.0928 8.90618 14.0618 9.19169 13.9436C9.4772 13.8253 9.72123 13.625 9.89292 13.3681C10.0646 13.1111 10.1563 12.809 10.1563 12.5C10.1563 12.0856 9.99163 11.6882 9.6986 11.3951C9.40558 11.1021 9.00815 10.9375 8.59375 10.9375ZM8.59375 35.9375C8.28472 35.9375 7.98262 36.0291 7.72567 36.2008C7.46872 36.3725 7.26845 36.6165 7.15019 36.9021C7.03193 37.1876 7.00098 37.5017 7.06127 37.8048C7.12156 38.1079 7.27038 38.3863 7.4889 38.6049C7.70742 38.8234 7.98583 38.9722 8.28892 39.0325C8.59202 39.0928 8.90618 39.0618 9.19169 38.9436C9.4772 38.8253 9.72123 38.625 9.89292 38.3681C10.0646 38.1111 10.1563 37.809 10.1563 37.5C10.1563 37.0856 9.99163 36.6882 9.6986 36.3951C9.40558 36.1021 9.00815 35.9375 8.59375 35.9375Z" fill="#666666"/>
</svg>
