<svg width="50" height="50" viewBox="0 0 50 50" fill="none" xmlns="http://www.w3.org/2000/svg">
<path fill-rule="evenodd" clip-rule="evenodd" d="M15.4262 36.1606C22.5564 35.1189 27.4658 35.2085 34.6054 36.197C35.1224 36.272 35.5949 36.5315 35.9355 36.9276C36.2761 37.3238 36.4619 37.8298 36.4585 38.3522C36.4585 38.8522 36.2866 39.3377 35.9762 39.7168C35.4352 40.3779 34.8809 41.028 34.3137 41.6668H37.0648C37.2377 41.4606 37.4116 41.2502 37.5877 41.0366C38.2055 40.2789 38.5426 39.331 38.5418 38.3533C38.5418 36.2439 37.0022 34.4262 34.8908 34.1345C27.5825 33.1231 22.4741 33.0262 15.1252 34.1002C12.9918 34.4116 11.4585 36.2575 11.4585 38.3814C11.4585 39.3241 11.7658 40.2564 12.3481 41.0116C12.52 41.2345 12.6897 41.4533 12.8585 41.6679H15.5429C15.0152 41.0361 14.5005 40.3936 13.9991 39.7408C13.7012 39.35 13.5404 38.8718 13.5418 38.3804C13.5418 37.2585 14.3481 36.3179 15.4262 36.1606ZM25.0002 26.0418C25.8209 26.0418 26.6337 25.8802 27.3919 25.5661C28.1502 25.252 28.8392 24.7916 29.4196 24.2112C30 23.6309 30.4603 22.9419 30.7744 22.1836C31.0885 21.4253 31.2502 20.6126 31.2502 19.7918C31.2502 18.9711 31.0885 18.1583 30.7744 17.4001C30.4603 16.6418 30 15.9528 29.4196 15.3724C28.8392 14.792 28.1502 14.3317 27.3919 14.0176C26.6337 13.7035 25.8209 13.5418 25.0002 13.5418C23.3426 13.5418 21.7528 14.2003 20.5807 15.3724C19.4086 16.5445 18.7502 18.1342 18.7502 19.7918C18.7502 21.4494 19.4086 23.0391 20.5807 24.2112C21.7528 25.3834 23.3426 26.0418 25.0002 26.0418ZM25.0002 28.1252C27.2103 28.1252 29.3299 27.2472 30.8927 25.6844C32.4555 24.1216 33.3335 22.002 33.3335 19.7918C33.3335 17.5817 32.4555 15.4621 30.8927 13.8993C29.3299 12.3365 27.2103 11.4585 25.0002 11.4585C22.79 11.4585 20.6704 12.3365 19.1076 13.8993C17.5448 15.4621 16.6668 17.5817 16.6668 19.7918C16.6668 22.002 17.5448 24.1216 19.1076 25.6844C20.6704 27.2472 22.79 28.1252 25.0002 28.1252Z" fill="#666666"/>
<path fill-rule="evenodd" clip-rule="evenodd" d="M25.0001 43.7501C35.3553 43.7501 43.7501 35.3553 43.7501 25.0001C43.7501 14.6449 35.3553 6.25008 25.0001 6.25008C14.6449 6.25008 6.25008 14.6449 6.25008 25.0001C6.25008 35.3553 14.6449 43.7501 25.0001 43.7501ZM25.0001 45.8334C36.5063 45.8334 45.8334 36.5063 45.8334 25.0001C45.8334 13.4938 36.5063 4.16675 25.0001 4.16675C13.4938 4.16675 4.16675 13.4938 4.16675 25.0001C4.16675 36.5063 13.4938 45.8334 25.0001 45.8334Z" fill="#666666"/>
</svg>
