<svg width="46" height="46" viewBox="0 0 46 46" fill="none" xmlns="http://www.w3.org/2000/svg">
<path d="M40.3398 24.5273L32.793 32.0742C32.5922 32.2743 32.354 32.4328 32.0919 32.5407C31.8298 32.6486 31.549 32.7038 31.2656 32.7031C30.694 32.7006 30.1459 32.475 29.7383 32.0742C29.5373 31.8739 29.3778 31.6359 29.2689 31.3738C29.1601 31.1117 29.1041 30.8307 29.1041 30.5469C29.1041 30.2631 29.1601 29.9821 29.2689 29.72C29.3778 29.4579 29.5373 29.2199 29.7383 29.0195L33.6016 25.1562H18.6875C18.1156 25.1562 17.5672 24.9291 17.1628 24.5247C16.7584 24.1203 16.5312 23.5719 16.5312 23C16.5312 22.4281 16.7584 21.8797 17.1628 21.4753C17.5672 21.0709 18.1156 20.8438 18.6875 20.8438H33.6016L29.7383 16.9805C29.3332 16.5754 29.1056 16.026 29.1056 15.4531C29.1056 14.8803 29.3332 14.3309 29.7383 13.9258C30.1434 13.5207 30.6928 13.2931 31.2656 13.2931C31.8385 13.2931 32.3879 13.5207 32.793 13.9258L40.3398 21.4727C40.5409 21.673 40.7004 21.911 40.8092 22.1731C40.918 22.4352 40.974 22.7162 40.974 23C40.974 23.2838 40.918 23.5648 40.8092 23.8269C40.7004 24.089 40.5409 24.327 40.3398 24.5273ZM18.6875 36.6562H9.34375V9.34375H18.6875C19.2594 9.34375 19.8078 9.11657 20.2122 8.7122C20.6166 8.30782 20.8438 7.75937 20.8438 7.1875C20.8438 6.61563 20.6166 6.06718 20.2122 5.6628C19.8078 5.25843 19.2594 5.03125 18.6875 5.03125H8.625C7.67333 5.03597 6.76199 5.41612 6.08905 6.08905C5.41612 6.76199 5.03597 7.67333 5.03125 8.625V37.375C5.03597 38.3267 5.41612 39.238 6.08905 39.9109C6.76199 40.5839 7.67333 40.964 8.625 40.9688H18.6875C19.2594 40.9688 19.8078 40.7416 20.2122 40.3372C20.6166 39.9328 20.8438 39.3844 20.8438 38.8125C20.8438 38.2406 20.6166 37.6922 20.2122 37.2878C19.8078 36.8834 19.2594 36.6562 18.6875 36.6562Z" fill="#E165AB" stroke="#E165AB"/>
</svg>
