<svg width="50" height="50" viewBox="0 0 50 50" fill="none" xmlns="http://www.w3.org/2000/svg">
<path d="M43.6832 38.4333C43.663 39.1523 43.4985 39.86 43.1995 40.5143C42.9004 41.1685 42.4729 41.756 41.9424 42.2418C41.4119 42.7277 40.7891 43.1019 40.1112 43.3424C39.4332 43.5828 38.7138 43.6846 37.9957 43.6416C33.5103 43.6666 29.0249 43.6416 24.5395 43.6416C24.2632 43.6416 23.9982 43.5318 23.8029 43.3365C23.6075 43.1411 23.4978 42.8762 23.4978 42.5999C23.4978 42.3237 23.6075 42.0587 23.8029 41.8634C23.9982 41.668 24.2632 41.5583 24.5395 41.5583C29.1228 41.5583 33.7061 41.6249 38.2895 41.5583C40.5957 41.5249 41.5999 39.7916 41.5999 37.7291V11.7645C41.616 11.1088 41.4315 10.4638 41.0711 9.91581C40.7107 9.3678 40.1916 8.94287 39.5832 8.69784C38.8639 8.50155 38.1155 8.43454 37.3728 8.49993H24.5395C24.2632 8.49993 23.9982 8.39018 23.8029 8.19483C23.6075 7.99948 23.4978 7.73453 23.4978 7.45826C23.4978 7.18199 23.6075 6.91704 23.8029 6.72169C23.9982 6.52634 24.2632 6.41659 24.5395 6.41659C29.1728 6.41659 33.8416 6.23951 38.4707 6.41659C39.1796 6.43452 39.8779 6.59326 40.5249 6.88356C41.1718 7.17386 41.7546 7.58994 42.2393 8.10757C42.724 8.62521 43.1009 9.23407 43.348 9.89872C43.5952 10.5634 43.7077 11.2705 43.6791 11.9791L43.6832 38.4333Z" fill="#666666"/>
<path d="M6.6167 24.2979C6.44068 24.4685 6.33764 24.7008 6.3292 24.9458C6.3292 24.977 6.3292 25.0041 6.3167 25.0354C6.3042 25.0666 6.3167 25.0916 6.3292 25.1208C6.33754 25.3664 6.44056 25.5993 6.6167 25.7708L14.2605 33.4145C14.4569 33.6043 14.72 33.7093 14.9932 33.7069C15.2663 33.7045 15.5275 33.595 15.7207 33.4018C15.9138 33.2087 16.0234 32.9474 16.0257 32.6743C16.0281 32.4012 15.9231 32.1381 15.7334 31.9416L9.86878 26.0749H32.2479C32.5242 26.0749 32.7892 25.9652 32.9845 25.7698C33.1799 25.5745 33.2896 25.3095 33.2896 25.0333C33.2896 24.757 33.1799 24.4921 32.9845 24.2967C32.7892 24.1014 32.5242 23.9916 32.2479 23.9916H9.86878L15.7334 18.1249C15.9231 17.9285 16.0281 17.6654 16.0257 17.3922C16.0234 17.1191 15.9138 16.8578 15.7207 16.6647C15.5275 16.4716 15.2663 16.362 14.9932 16.3597C14.72 16.3573 14.4569 16.4623 14.2605 16.652L6.6167 24.2979Z" fill="#666666"/>
</svg>
