<svg width="44" height="44" viewBox="0 0 44 44" fill="none" xmlns="http://www.w3.org/2000/svg">
<rect width="44" height="44" rx="22" fill="#C77093"/>
<path d="M36.1313 26.3564C36.2712 26.5987 36.3449 26.8736 36.3448 27.1535C36.3448 27.4333 36.2711 27.7082 36.1311 27.9506C35.9911 28.1929 35.7897 28.394 35.5473 28.5339C35.3049 28.6737 35.0299 28.7472 34.7501 28.747C34.4696 28.7499 34.1935 28.6775 33.9505 28.5374C33.7076 28.3972 33.5067 28.1944 33.3688 27.9501L31.204 24.2048C29.9849 24.9678 28.6725 25.5704 27.2993 25.9978L27.9899 29.9025C28.0281 30.1084 28.025 30.3199 27.9807 30.5246C27.9364 30.7294 27.8519 30.9233 27.732 31.095C27.6121 31.2668 27.4593 31.4131 27.2824 31.5252C27.1055 31.6374 26.9081 31.7133 26.7016 31.7486L26.4227 31.7751C26.0487 31.7747 25.6868 31.6427 25.4003 31.4023C25.1138 31.162 24.921 30.8285 24.8555 30.4603L24.1782 26.6486C23.4559 26.7411 22.7282 26.7855 22.0001 26.7814C21.2677 26.7784 20.536 26.7341 19.8087 26.6486L19.1313 30.4603C19.0659 30.8285 18.873 31.162 18.5865 31.4023C18.3 31.6427 17.9381 31.7747 17.5641 31.7751L17.2852 31.7486C17.0787 31.7133 16.8813 31.6374 16.7044 31.5252C16.5275 31.4131 16.3747 31.2668 16.2548 31.095C16.135 30.9233 16.0504 30.7294 16.0062 30.5246C15.9619 30.3199 15.9588 30.1084 15.9969 29.9025L16.6876 25.9978C15.3186 25.5703 14.0106 24.9676 12.7962 24.2048L10.618 27.9767C10.477 28.2182 10.2755 28.4188 10.0332 28.5585C9.79097 28.6983 9.51645 28.7724 9.23678 28.7736C8.95687 28.7758 8.68154 28.7024 8.43991 28.5611C8.25843 28.4565 8.09935 28.3172 7.97175 28.1511C7.84415 27.985 7.75053 27.7954 7.69626 27.5931C7.64199 27.3908 7.62812 27.1798 7.65545 26.9722C7.68278 26.7645 7.75077 26.5643 7.85553 26.3829L10.2329 22.2657C9.4284 21.5511 8.68639 20.7691 8.01491 19.9282C7.8682 19.768 7.7558 19.5794 7.68463 19.3742C7.61345 19.1689 7.585 18.9512 7.60102 18.7346C7.61703 18.5179 7.67718 18.3068 7.77777 18.1142C7.87835 17.9216 8.01725 17.7516 8.18592 17.6147C8.3546 17.4778 8.54949 17.3768 8.75863 17.3179C8.96777 17.259 9.18673 17.2436 9.40207 17.2724C9.61741 17.3013 9.82457 17.3738 10.0108 17.4857C10.1971 17.5975 10.3585 17.7463 10.4852 17.9228C12.5837 20.5126 16.2758 23.5939 22.0001 23.5939C27.7243 23.5939 31.4165 20.5126 33.5149 17.9228C33.6416 17.7463 33.803 17.5975 33.9893 17.4857C34.1756 17.3738 34.3827 17.3013 34.5981 17.2724C34.8134 17.2436 35.0324 17.259 35.2415 17.3179C35.4506 17.3768 35.6455 17.4778 35.8142 17.6147C35.9829 17.7516 36.1218 17.9216 36.2224 18.1142C36.3229 18.3068 36.3831 18.5179 36.3991 18.7346C36.4151 18.9512 36.3867 19.1689 36.3155 19.3742C36.2443 19.5794 36.1319 19.768 35.9852 19.9282C35.3107 20.7705 34.5689 21.5567 33.7673 22.279L36.1313 26.3564Z" fill="white"/>
</svg>
