<svg width="34" height="34" viewBox="0 0 34 34" fill="none" xmlns="http://www.w3.org/2000/svg">
<path d="M14.6667 20L11.0417 16.375C10.7362 16.0695 10.3612 15.9167 9.91671 15.9167C9.47226 15.9167 9.08338 16.0834 8.75004 16.4167C8.44449 16.7223 8.29171 17.1112 8.29171 17.5834C8.29171 18.0556 8.44449 18.4445 8.75004 18.75L13.5 23.5C13.8056 23.8056 14.1945 23.9584 14.6667 23.9584C15.1389 23.9584 15.5278 23.8056 15.8334 23.5L25.2917 14.0417C25.5973 13.7362 25.75 13.3612 25.75 12.9167C25.75 12.4723 25.5834 12.0834 25.25 11.75C24.9445 11.4445 24.5556 11.2917 24.0834 11.2917C23.6112 11.2917 23.2223 11.4445 22.9167 11.75L14.6667 20ZM17 33.6667C14.6945 33.6667 12.5278 33.2289 10.5 32.3534C8.47226 31.4778 6.70838 30.2906 5.20837 28.7917C3.70837 27.2917 2.52115 25.5278 1.64671 23.5C0.772263 21.4723 0.334485 19.3056 0.333374 17C0.333374 14.6945 0.771152 12.5278 1.64671 10.5C2.52226 8.47226 3.70949 6.70838 5.20837 5.20837C6.70838 3.70837 8.47226 2.52115 10.5 1.64671C12.5278 0.772263 14.6945 0.334485 17 0.333374C19.3056 0.333374 21.4723 0.771152 23.5 1.64671C25.5278 2.52226 27.2917 3.70949 28.7917 5.20837C30.2917 6.70838 31.4795 8.47226 32.355 10.5C33.2306 12.5278 33.6678 14.6945 33.6667 17C33.6667 19.3056 33.2289 21.4723 32.3534 23.5C31.4778 25.5278 30.2906 27.2917 28.7917 28.7917C27.2917 30.2917 25.5278 31.4795 23.5 32.355C21.4723 33.2306 19.3056 33.6678 17 33.6667Z" fill="#76B07B"/>
</svg>
