<svg width="182" height="182" viewBox="0 0 182 182" fill="none" xmlns="http://www.w3.org/2000/svg">
<path d="M99.5309 45.5L151.264 45.5114L152.493 45.682L153.778 46.0574L154.939 46.6034L155.371 46.865L155.928 47.2631L156.793 48.0253L157.748 49.1741L158.419 50.3116L158.886 51.506L159.147 52.6094L159.261 54.0312V105.264C159.26 107.426 158.439 109.506 156.964 111.086C155.488 112.665 153.468 113.626 151.311 113.773C149.155 113.92 147.023 113.244 145.346 111.88C143.669 110.516 142.573 108.566 142.278 106.424L142.21 105.264L142.187 74.62L94.1847 122.657C92.7389 124.107 90.8194 124.99 88.7768 125.142C86.7343 125.295 84.7051 124.707 83.0599 123.487L82.1044 122.657L65.4059 105.901L37.3211 133.997C35.7988 135.524 33.7551 136.417 31.6009 136.499C29.4466 136.58 27.3416 135.842 25.709 134.434C24.0764 133.026 23.0373 131.053 22.8006 128.91C22.5639 126.767 23.1472 124.614 24.4332 122.884L25.2636 121.929L59.3658 87.8036C60.811 86.3558 62.7282 85.4755 64.7682 85.3231C66.8081 85.1706 68.8349 85.7563 70.4792 86.9732L71.4347 87.8036L88.1559 104.57L130.141 62.5625H99.5309C97.4694 62.5624 95.4776 61.8158 93.9239 60.4608C92.3702 59.1057 91.3597 57.2339 91.0793 55.1915L90.9997 54.0312C90.9997 51.7686 91.8985 49.5987 93.4984 47.9987C95.0984 46.3988 97.2683 45.5 99.5309 45.5Z" fill="#D62B70"/>
</svg>
