<svg width="32" height="32" viewBox="0 0 32 32" fill="none" xmlns="http://www.w3.org/2000/svg">
<path d="M21.0917 14.9999L19.5004 13.4087L16.0004 16.9087L12.5004 13.4087L10.9092 14.9999L14.4092 18.4999L10.9092 21.9999L12.5004 23.5912L16.0004 20.0912L19.5004 23.5912L21.0917 21.9999L17.5917 18.4999L21.0917 14.9999Z" fill="white"/>
<path d="M4 10L5.85875 27.6569C5.89752 28.0255 6.07141 28.3668 6.3469 28.6148C6.62238 28.8628 6.97994 29 7.35063 29H24.6494C25.0201 29 25.3776 28.8628 25.6531 28.6148C25.9286 28.3668 26.1025 28.0255 26.1413 27.6569L28 10H4ZM19.5 23.5912L16 20.0912L12.5 23.5912L10.9087 22L14.4087 18.5L10.9087 15L12.5 13.4087L16 16.9088L19.5 13.4087L21.0912 15L17.5912 18.5L21.0912 22L19.5 23.5912Z" fill="#EB4335"/>
<path d="M29.25 3H2.75C2.33579 3 2 3.33579 2 3.75V7.25C2 7.66421 2.33579 8 2.75 8H29.25C29.6642 8 30 7.66421 30 7.25V3.75C30 3.33579 29.6642 3 29.25 3Z" fill="#EB4335"/>
</svg>
